<svg id="Grupo_160" data-name="Grupo 160" xmlns="http://www.w3.org/2000/svg" xmlns:xlink="http://www.w3.org/1999/xlink" width="182.551" height="179.959" viewBox="0 0 182.551 179.959">
  <defs>
    <clipPath id="clip-path">
      <rect id="Ret창ngulo_100" data-name="Ret창ngulo 100" width="182.551" height="179.959" fill="none"/>
    </clipPath>
  </defs>
  <g id="Grupo_159" data-name="Grupo 159" clip-path="url(#clip-path)">
    <path id="Caminho_118" data-name="Caminho 118" d="M94.7,179.959a2.678,2.678,0,0,1-.888-.152L1.793,147.5A2.682,2.682,0,0,1,0,144.973V34.374a2.681,2.681,0,0,1,1.808-2.535L93.831.146a2.689,2.689,0,0,1,1.743,0L180.74,29.351a2.682,2.682,0,0,1,1.811,2.536V147.458a2.683,2.683,0,0,1-1.795,2.531L95.59,179.808a2.665,2.665,0,0,1-.886.151M5.363,143.072l89.342,31.365,82.484-28.881V33.8L94.706,5.516,5.363,36.286Z" fill="#050505"/>
    <path id="Caminho_119" data-name="Caminho 119" d="M94.7,147.028a2.66,2.66,0,0,1-.881-.149L31.331,125.136a2.68,2.68,0,0,1-1.8-2.532V56.12a2.683,2.683,0,0,1,1.8-2.532l85.539-29.825a2.681,2.681,0,0,1,3.564,2.532V90.877L180.756,112a2.682,2.682,0,0,1,0,5.062L95.59,146.878a2.669,2.669,0,0,1-.886.15M34.894,120.7,94.7,141.507l77.055-26.981L116.866,95.31a2.683,2.683,0,0,1-1.795-2.531V30.07L34.894,58.025Z" fill="#050505"/>
    <rect id="Ret창ngulo_99" data-name="Ret창ngulo 99" width="90.59" height="5.363" transform="matrix(0.944, -0.329, 0.329, 0.944, 31.33, 120.075)" fill="#050505"/>
  </g>
</svg>
