<svg xmlns="http://www.w3.org/2000/svg" xmlns:xlink="http://www.w3.org/1999/xlink" width="440.617" height="218.09" viewBox="0 0 116.58 57.703"><defs><linearGradient id="b" x1="47.436" x2="188.89" y1="217" y2="241" gradientTransform="translate(51.808 -11.726) scale(.69656)" gradientUnits="userSpaceOnUse" xlink:href="#a"><stop stop-color="#98b065" offset="0"/><stop stop-color="#7d944c" offset="1"/></linearGradient><linearGradient x1="0" y1="0" x2="1" y2="0" gradientUnits="userSpaceOnUse" gradientTransform="matrix(175.03711 0 0 -175.03711 506.957 112.512)" spreadMethod="pad" id="a"><stop style="stop-opacity:1;stop-color:#9a00ff" offset="0"/><stop style="stop-opacity:1;stop-color:#9a00ff" offset=".101"/><stop style="stop-opacity:1;stop-color:#00b5ea" offset=".996"/><stop style="stop-opacity:1;stop-color:#00b5ea" offset="1"/></linearGradient><linearGradient xlink:href="#a" id="c" gradientUnits="userSpaceOnUse" x1="78.033" y1="224.223" x2="186.7" y2="224.223" gradientTransform="translate(-57.221 -87.817) scale(.79724)"/></defs><path d="M83.691 15.689a.473.473 0 0 0-.094.01c-.28.057-.532.342-.559.642-.018.291.184.493.46.438.28-.06.53-.343.558-.641.022-.262-.134-.45-.365-.45zm-1.544.33a.47.47 0 0 0-.115.015c-.28.069-.531.362-.563.66-.03.295.183.477.463.401a.769.769 0 0 0 .563-.64c.023-.259-.128-.436-.348-.436zm-8.967.284a.553.553 0 0 0-.24.066c-.3.15-.566.499-.6.774-.036.276.177.368.471.227.31-.147.573-.485.607-.76.021-.193-.075-.307-.238-.307zm7.434.113a.489.489 0 0 0-.125.017c-.28.073-.539.39-.566.674-.024.29.183.462.474.381.275-.07.526-.368.555-.658.024-.248-.12-.414-.338-.414zm-10.45.182a.609.609 0 0 0-.308.11c-.305.195-.594.575-.625.84-.038.261.192.315.498.126.309-.191.59-.562.619-.827.02-.162-.053-.25-.183-.25zm4.421.449a.523.523 0 0 0-.208.048c-.293.133-.568.491-.6.766-.027.281.2.387.49.253.284-.122.543-.454.577-.736.023-.208-.086-.331-.259-.331zm-3.006.079a.559.559 0 0 0-.26.08c-.28.156-.542.489-.574.742-.033.254.184.334.456.181.286-.156.546-.486.573-.744.022-.168-.059-.26-.195-.26zm5.968.283a.528.528 0 0 0-.18.033c-.285.102-.536.422-.565.708-.016.28.194.432.483.32.285-.09.532-.413.557-.702.019-.222-.102-.36-.295-.36zm-9.003.242c-.088 0-.207.045-.343.144-.31.223-.585.609-.619.864-.02.252.2.29.501.077.304-.217.582-.599.617-.862.019-.146-.043-.223-.156-.223Zm13.457.046a.473.473 0 0 0-.11.013.785.785 0 0 0-.556.658c-.023.288.195.474.481.4a.747.747 0 0 0 .546-.639c.016-.253-.138-.432-.361-.432zm-9.007.108c-.07 0-.149.02-.235.062-.296.145-.554.495-.576.763-.022.27.193.372.487.227.292-.13.55-.464.58-.742.017-.195-.087-.31-.256-.31zm2.99.187a.518.518 0 0 0-.191.04c-.29.118-.539.45-.56.733-.022.281.193.41.481.291.284-.118.544-.438.563-.72.013-.216-.108-.344-.292-.344zm-6.01.064a.637.637 0 0 0-.312.11c-.305.187-.571.541-.594.805-.024.261.204.324.508.147.3-.19.56-.554.585-.813.02-.162-.055-.249-.186-.249zm4.448.586a.532.532 0 0 0-.207.048c-.292.128-.55.47-.573.745-.015.276.203.39.494.263.295-.12.54-.441.564-.722.015-.205-.1-.334-.278-.334zm-3.01.002a.575.575 0 0 0-.266.078c-.295.16-.555.503-.577.768-.02.266.199.352.496.197.293-.151.556-.495.583-.766.013-.177-.083-.277-.236-.277zm11.989.488a.432.432 0 0 0-.096.01.687.687 0 0 0-.531.615c-.009.295.212.486.485.436a.671.671 0 0 0 .528-.62c.015-.258-.153-.441-.386-.441zm-15.048.002c-.088 0-.205.045-.334.136-.303.21-.568.582-.587.836-.024.25.202.295.5.082.302-.202.569-.579.588-.834.014-.144-.053-.22-.167-.22zm4.492.236a.547.547 0 0 0-.224.055c-.29.136-.546.483-.555.753-.018.272.207.367.494.234.289-.134.538-.455.551-.732.015-.194-.095-.31-.266-.31zm-3.027.19a.588.588 0 0 0-.293.098c-.3.18-.563.536-.577.795-.013.258.218.329.508.153.3-.18.55-.53.571-.79.015-.165-.07-.256-.209-.256zm6.051.04a.537.537 0 0 0-.195.043c-.28.114-.525.428-.54.711-.01.272.216.411.495.3.29-.115.527-.425.54-.71.01-.213-.113-.343-.3-.343zm-4.587.572a.57.57 0 0 0-.257.073c-.291.153-.534.485-.55.747-.011.263.216.362.508.214.29-.146.539-.482.553-.749.008-.182-.097-.285-.254-.285zm3.033.052a.515.515 0 0 0-.2.045c-.29.123-.537.464-.542.735-.02.275.204.392.498.269.284-.117.53-.437.541-.715.009-.205-.114-.334-.297-.334zm12.002.1c-.013 0-.026 0-.04.002a.583.583 0 0 0-.52.57c0 .295.217.503.495.484a.57.57 0 0 0 .508-.56c.011-.28-.185-.496-.443-.496zm-1.492.164c-.02 0-.04.001-.061.004-.279.037-.512.306-.52.598-.007.293.21.499.498.461.274-.034.503-.297.509-.593.007-.274-.179-.47-.426-.47zm-7.502.165a.514.514 0 0 0-.162.026c-.287.093-.521.411-.532.692 0 .28.224.425.507.335.28-.097.512-.4.523-.692.007-.221-.133-.361-.336-.361zm6.007.073a.437.437 0 0 0-.084.008.665.665 0 0 0-.519.611c0 .29.218.485.496.437a.65.65 0 0 0 .51-.614c.01-.264-.17-.441-.403-.441zm-10.567.198a.564.564 0 0 0-.225.054c-.292.133-.536.467-.539.734-.007.269.224.37.511.249.28-.128.517-.453.528-.728.008-.196-.104-.31-.275-.31zm9.064.094a.456.456 0 0 0-.107.012.697.697 0 0 0-.517.637c0 .288.217.466.498.4a.664.664 0 0 0 .52-.62c0-.25-.166-.429-.394-.429zm-6.035.178a.525.525 0 0 0-.183.037c-.286.108-.522.421-.522.7-.008.274.219.407.505.303.284-.109.516-.42.516-.698.007-.211-.127-.342-.316-.342zm4.52.18a.484.484 0 0 0-.118.014c-.28.067-.52.353-.52.642 0 .285.22.453.512.38a.696.696 0 0 0 .512-.628c0-.242-.165-.408-.385-.408zm-1.498.38a.535.535 0 0 0-.151.022.8.8 0 0 0-.548.69c0 .301.242.476.541.397.292-.094.534-.398.537-.705.007-.243-.155-.403-.38-.403zm10.424.114c-.279 0-.495.234-.495.524a.49.49 0 0 0 .484.516.514.514 0 0 0 .506-.516c0-.28-.216-.522-.491-.524zm-1.473.015-.022.001a.546.546 0 0 0-.504.548c0 .286.218.509.495.496a.527.527 0 0 0 .5-.535.483.483 0 0 0-.47-.51zm-1.483.09-.038.001c-.276.024-.51.286-.513.57 0 .287.226.507.504.48.27-.02.494-.269.494-.558.007-.275-.194-.493-.447-.493zm-1.487.167a.6.6 0 0 0-.57.59c0 .294.224.491.5.451a.59.59 0 0 0 .503-.58c0-.263-.185-.461-.433-.461zm-7.503.11c-.051 0-.106.01-.164.029-.281.09-.514.393-.514.673s.232.422.51.34c.281-.094.51-.392.51-.68 0-.22-.14-.362-.342-.362zm6.012.112a.439.439 0 0 0-.084.008c-.277.052-.513.32-.506.61 0 .29.228.477.502.433a.635.635 0 0 0 .502-.606c0-.257-.181-.445-.414-.445zm-1.508.28a.495.495 0 0 0-.096.01c-.282.059-.514.346-.5.629 0 .293.227.468.5.404a.642.642 0 0 0 .506-.616c-.007-.248-.177-.428-.41-.427zm-1.507.348a.559.559 0 0 0-.112.012.686.686 0 0 0-.502.632c.009.287.239.455.515.389a.664.664 0 0 0 .5-.623.391.391 0 0 0-.401-.41zm8.938.51a.512.512 0 0 0-.497.52.51.51 0 0 0 .5.513.491.491 0 0 0 .493-.507c0-.286-.215-.526-.49-.526zm-1.476.02c-.007 0-.012 0-.018.002-.278.01-.497.256-.497.544 0 .286.226.502.5.493a.529.529 0 0 0 .5-.533.487.487 0 0 0-.485-.505zm2.938.035a.482.482 0 0 0-.473.487c.012.285.232.53.503.541a.479.479 0 0 0 .495-.483.543.543 0 0 0-.495-.544l-.03-.001zm-4.422.06a.557.557 0 0 0-.528.565c.007.287.224.493.502.47a.543.543 0 0 0 .493-.55.47.47 0 0 0-.467-.485zm5.877.104c-.23 0-.404.185-.404.433 0 .267.205.5.461.531a.416.416 0 0 0 .473-.422.564.564 0 0 0-.53-.542zm-7.352.055a.779.779 0 0 0-.061.003c-.276.034-.5.296-.5.585.013.283.235.482.511.449a.589.589 0 0 0 .493-.576c-.007-.263-.194-.46-.443-.46zm-1.486.22a.466.466 0 0 0-.085.007.627.627 0 0 0-.494.602c.017.285.245.47.515.422a.612.612 0 0 0 .488-.595c-.007-.256-.19-.437-.424-.436zm-1.496.267a.44.44 0 0 0-.097.01.641.641 0 0 0-.486.628c.007.274.24.456.515.396a.61.61 0 0 0 .48-.597c0-.255-.18-.437-.412-.437zm-1.503.332a.468.468 0 0 0-.11.013.649.649 0 0 0-.478.624c.012.278.246.452.521.391a.647.647 0 0 0 .484-.616c-.015-.241-.19-.412-.417-.412zm8.936.524a.494.494 0 0 0-.49.515c0 .285.227.515.502.513a.488.488 0 0 0 .48-.507c0-.28-.216-.521-.486-.521zm-1.477.028c-.008 0-.016 0-.022.002-.275.009-.486.252-.477.539 0 .282.23.496.504.48a.508.508 0 0 0 .48-.52c0-.284-.217-.5-.485-.5zm2.939.016a.47.47 0 0 0-.464.492c0 .28.222.519.491.529a.465.465 0 0 0 .49-.48.546.546 0 0 0-.496-.54h-.021zm-4.403.076a.551.551 0 0 0-.536.557.47.47 0 0 0 .511.47.532.532 0 0 0 .487-.546c-.007-.274-.21-.48-.462-.48zm5.848.049c-.243 0-.428.196-.434.458.007.28.227.528.499.56a.44.44 0 0 0 .486-.45.574.574 0 0 0-.551-.568zm-7.327.103c-.02 0-.042 0-.062.003-.273.034-.487.298-.482.582.01.285.232.48.513.441.27-.026.49-.288.484-.564-.013-.264-.209-.462-.453-.462zm8.78.11c-.234 0-.414.177-.414.428.007.276.229.53.495.577.268.05.494-.13.488-.406a.622.622 0 0 0-.488-.592.41.41 0 0 0-.08-.008zm-10.261.1a.665.665 0 0 0-.078.006.601.601 0 0 0-.484.599c.017.28.25.471.52.425a.578.578 0 0 0 .476-.586c-.009-.259-.195-.443-.434-.443zm11.681.226c-.21 0-.367.156-.364.39 0 .27.214.54.481.605.265.068.491-.098.491-.367.008-.27-.226-.542-.49-.613a.5.5 0 0 0-.118-.015zm-13.158.04a.409.409 0 0 0-.094.01.624.624 0 0 0-.486.612c.017.284.256.453.526.401a.595.595 0 0 0 .47-.597c-.01-.248-.19-.426-.416-.426zm-1.5.317a.5.5 0 0 0-.102.01.618.618 0 0 0-.466.622c.016.273.246.446.52.38a.606.606 0 0 0 .475-.601.424.424 0 0 0-.426-.411zm8.9.54a.487.487 0 0 0-.472.518c0 .28.23.5.5.495.273 0 .478-.218.478-.5-.008-.277-.23-.513-.498-.513zm-1.481.028a.512.512 0 0 0-.475.537.493.493 0 0 0 .512.485c.27-.01.474-.244.471-.526a.506.506 0 0 0-.491-.496h-.017zm2.935.012a.456.456 0 0 0-.45.485c.007.28.227.519.502.53a.471.471 0 0 0 .476-.487.544.544 0 0 0-.507-.528h-.021zm-4.379.083-.039.001a.523.523 0 0 0-.47.553.46.46 0 0 0 .505.462c.275-.017.481-.259.481-.542a.486.486 0 0 0-.477-.474zm5.824.027c-.245 0-.429.2-.423.457 0 .277.216.523.494.554a.45.45 0 0 0 .49-.458.591.591 0 0 0-.56-.553zm-7.297.122a.55.55 0 0 0-.52.577c.007.285.243.48.516.45a.554.554 0 0 0 .473-.567.472.472 0 0 0-.469-.46zm8.744.07c-.232 0-.406.188-.403.431 0 .277.222.53.492.57a.406.406 0 0 0 .482-.415.62.62 0 0 0-.494-.578.445.445 0 0 0-.077-.008zm-10.2.137a.57.57 0 0 0-.548.592c.014.28.255.47.525.427.266-.041.47-.3.467-.581a.451.451 0 0 0-.444-.437zm11.63.162c-.213 0-.37.16-.367.394 0 .271.218.537.484.596.267.06.486-.106.488-.38 0-.262-.225-.536-.495-.598a.506.506 0 0 0-.11-.012zm-13.112.086a.488.488 0 0 0-.089.008.595.595 0 0 0-.458.608c.015.278.258.456.53.405a.58.58 0 0 0 .45-.591c-.017-.25-.2-.43-.433-.43zm7.383.868a.48.48 0 0 0-.468.512c.016.274.241.5.508.49a.467.467 0 0 0 .461-.496.516.516 0 0 0-.5-.506zm-1.473.034a.492.492 0 0 0-.464.53.49.49 0 0 0 .505.472.481.481 0 0 0 .463-.518.49.49 0 0 0-.484-.484h-.02zm2.92 0a.45.45 0 0 0-.451.478c.01.277.23.511.503.524.27.003.48-.207.47-.48a.538.538 0 0 0-.501-.522h-.021zm1.444.094c-.25 0-.445.201-.435.461.007.277.229.51.499.533a.425.425 0 0 0 .468-.447.557.557 0 0 0-.532-.547zm-5.804.002c-.011 0-.024 0-.037.002a.503.503 0 0 0-.455.54c.016.277.24.485.515.463a.51.51 0 0 0 .46-.538.489.489 0 0 0-.483-.466zm-1.445.143a.544.544 0 0 0-.516.572.46.46 0 0 0 .523.436.533.533 0 0 0 .453-.555.465.465 0 0 0-.46-.453zm8.681.037a.405.405 0 0 0-.413.426c.008.276.234.52.498.552a.4.4 0 0 0 .475-.413.59.59 0 0 0-.491-.56.505.505 0 0 0-.068-.005zm-10.134.162a.562.562 0 0 0-.534.587.459.459 0 0 0 .53.418c.267-.039.464-.296.452-.574a.452.452 0 0 0-.448-.431Zm-1.46.247a.486.486 0 0 0-.088.009.567.567 0 0 0-.45.586.441.441 0 0 0 .537.402c.263-.043.46-.301.44-.577a.437.437 0 0 0-.439-.42zm7.336.86a.474.474 0 0 0-.46.504c.016.272.242.498.505.488a.457.457 0 0 0 .458-.488c-.012-.276-.228-.504-.489-.504zm1.442.023a.444.444 0 0 0-.45.482c.013.275.24.497.5.504.263.014.469-.203.454-.475a.518.518 0 0 0-.492-.511zm-2.903.013a.483.483 0 0 0-.453.525.487.487 0 0 0 .51.468.477.477 0 0 0 .453-.513.499.499 0 0 0-.487-.48h-.023zm4.326.076c-.244 0-.432.193-.426.453a.55.55 0 0 0 .495.528.43.43 0 0 0 .467-.451.56.56 0 0 0-.536-.53zm-5.752.02h-.033a.499.499 0 0 0-.45.535.488.488 0 0 0 .52.455.491.491 0 0 0 .448-.526.488.488 0 0 0-.485-.464zm7.184.13a.41.41 0 0 0-.41.434c.007.27.226.511.49.545.256.032.476-.148.465-.418a.595.595 0 0 0-.485-.557.532.532 0 0 0-.06-.004zm-8.62.01L85 30.17a.523.523 0 0 0-.44.558.47.47 0 0 0 .514.441.518.518 0 0 0 .448-.55.478.478 0 0 0-.468-.45zm-1.44.194a.478.478 0 0 0-.074.006.531.531 0 0 0-.433.573c.027.269.256.452.52.414a.534.534 0 0 0 .444-.566.458.458 0 0 0-.456-.427zm5.85 1.097-.01.001a.459.459 0 0 0-.445.5.5.5 0 0 0 .502.478c.265.004.465-.215.452-.487-.015-.264-.237-.492-.498-.492zm1.417.012c-.26 0-.454.22-.444.48.023.273.243.5.507.507a.439.439 0 0 0 .447-.479c-.01-.27-.237-.503-.498-.508h-.011zm-2.854.024a.478.478 0 0 0-.463.524c.024.27.255.48.523.469a.476.476 0 0 0 .437-.518.513.513 0 0 0-.497-.475zm4.27.054a.421.421 0 0 0-.426.452c.011.27.234.501.503.519.26.018.458-.183.446-.447a.544.544 0 0 0-.487-.523c-.013-.002-.024-.002-.036-.002zm-5.686.039c-.012 0-.026 0-.038.002a.485.485 0 0 0-.44.533.497.497 0 0 0 .52.458.483.483 0 0 0 .431-.53.48.48 0 0 0-.473-.463zm-1.435.143c-.016 0-.032 0-.048.003-.265.025-.454.28-.427.548a.474.474 0 0 0 .523.435.495.495 0 0 0 .428-.54.483.483 0 0 0-.476-.446zm-1.415.183a.606.606 0 0 0-.065.004.516.516 0 0 0-.426.569c.021.27.266.452.529.414a.501.501 0 0 0 .418-.558.46.46 0 0 0-.456-.429zm5.784 1.096c-.255.008-.447.23-.433.498.021.275.252.483.508.476a.451.451 0 0 0 .44-.487c-.026-.27-.25-.487-.507-.487zm-1.423.042c-.26.012-.452.242-.425.518.028.267.254.477.51.46a.464.464 0 0 0 .435-.51.51.51 0 0 0-.498-.468zm-1.378.097c-.015 0-.03 0-.045.002a.47.47 0 0 0-.417.522c.027.268.259.474.515.451a.468.468 0 0 0 .422-.524.48.48 0 0 0-.475-.451zm-1.414.13a.482.482 0 0 0-.462.549c.033.275.265.46.521.427a.487.487 0 0 0 .42-.535.494.494 0 0 0-.478-.441zm-1.405.177a.503.503 0 0 0-.472.564c.04.27.276.453.533.413a.486.486 0 0 0 .407-.545.484.484 0 0 0-.469-.432zm4.328 1.134c-.252.013-.444.24-.42.512.033.27.26.476.516.464.26-.014.444-.235.42-.513a.512.512 0 0 0-.496-.463h-.02zm-1.355.093a.29.29 0 0 0-.04.003c-.26.018-.444.252-.414.523.031.269.263.469.52.449a.464.464 0 0 0 .41-.525.495.495 0 0 0-.477-.45zm-1.389.135c-.017 0-.033 0-.05.002a.472.472 0 0 0-.405.54.484.484 0 0 0 .528.427.462.462 0 0 0 .398-.533.486.486 0 0 0-.47-.436zm-44.702.099c-2.361 0-4.3 1.724-4.3 4.803 0 2.767 1.314 4.6 4.058 4.6 2.347 0 4.286-1.737 4.286-4.802 0-2.944-1.56-4.601-4.044-4.601zm29.355.054c-1.152 0-2.281.015-3.135.07v9.159h2.524v-3.34h.124l1.695 3.34h3.067l-1.617-2.796c-.205-.354-.419-.69-.662-1.059 1.031-.377 1.64-1.426 1.64-2.51 0-2.035-1.302-2.864-3.637-2.864zm13.958.018a.47.47 0 0 0-.451.552c.038.272.277.46.525.42.254-.033.429-.275.394-.545a.488.488 0 0 0-.467-.427zm-80.361.051v9.16h4.437v-.884H4.8v-8.276zm8.112 0-3.407 9.16h1.071l.817-2.253h4.074l.796 2.253h1.18l-3.404-9.16zm3.934 0v.868h2.742v8.292h1.032V35.91h2.755v-.868Zm7.885 0v9.16h1.048v-9.16zm3.788 0v9.16h1.016v-2.81c0-1.589-.04-4.098-.079-5.143.3.596.636 1.222 1.045 1.874l3.814 6.079h1.38v-9.16h-1.015v2.51c0 1.67.04 4.165.094 5.387-.355-.638-.732-1.318-1.126-1.955l-3.745-5.942Zm18.117 0 2.198 9.16h2.865l.796-3.53c.165-.72.286-1.439.342-2.237h.014c.094.868.205 1.668.352 2.334l.759 3.433h3.069l2.223-9.16H55.68l-.764 3.528a30.768 30.768 0 0 0-.364 2.132h-.016c-.08-.76-.23-1.48-.365-2.01l-.92-3.65h-2.542l-.962 3.786a16.755 16.755 0 0 0-.34 1.953h-.015c-.051-.692-.144-1.411-.283-1.995l-.843-3.744Zm14.915 0-2.986 9.16h2.498l.46-1.495h2.82l.48 1.495h2.75l-3.132-9.16zm14.464 0v9.16h5.362v-2.187H77.5v-1.48h2.687v-2.061H77.5v-1.29h2.836v-2.142Zm-34.303.772c1.937 0 3.066 1.412 3.066 3.868 0 2.43-1.467 3.732-3.066 3.732-2.065 0-3.056-1.586-3.056-3.881 0-2.4 1.44-3.72 3.056-3.72zm-28.298.381h.029c.109.395.245.787.407 1.233l1.327 3.694h-3.499l1.345-3.705c.161-.435.286-.827.392-1.222zm74.691.013c-.013 0-.025.002-.038.003a.455.455 0 0 0-.403.529.494.494 0 0 0 .514.437c.26-.022.43-.248.397-.52-.027-.254-.233-.448-.47-.448zm-1.373.135c-.015 0-.03 0-.046.002-.253.027-.423.269-.385.533.04.268.272.456.524.431.246-.029.414-.264.382-.53-.04-.253-.238-.436-.474-.436zm-1.365.164a.585.585 0 0 0-.054.003.465.465 0 0 0-.38.545c.046.27.28.449.528.417.246-.036.416-.268.378-.537a.491.491 0 0 0-.472-.428zm-14.303.543c.826 0 1.114.433 1.114.977 0 .676-.475 1.046-1.168 1.046-.137 0-.324-.014-.42-.03v-1.966c.08-.014.313-.027.474-.027zm15.882.802a.416.416 0 0 0-.044.003c-.249.024-.417.265-.382.53.042.264.275.453.522.426.241-.025.413-.26.37-.526a.484.484 0 0 0-.466-.434zm-24.053.108h.029c.08.405.201.84.34 1.287l.46 1.48h-1.6l.448-1.465c.132-.462.245-.897.322-1.302zm22.71.053c-.019 0-.038 0-.057.003-.246.032-.405.276-.363.542.05.26.284.442.53.41.245-.025.406-.268.359-.534a.494.494 0 0 0-.469-.42zm1.56 1.361c-.012 0-.025 0-.036.002-.245.026-.396.261-.356.524.044.26.273.454.513.425.24-.026.4-.261.36-.52a.5.5 0 0 0-.482-.43zm-1.295.155a.35.35 0 0 0-.05.004c-.244.031-.403.273-.358.53.051.26.286.443.528.413.232-.031.388-.269.344-.525-.042-.243-.247-.422-.463-.422zm1.546 1.309a.29.29 0 0 0-.04.002c-.24.023-.39.257-.35.52.046.258.277.444.508.421.23-.023.39-.255.344-.515-.037-.248-.244-.428-.462-.428zm-1.284.15a.491.491 0 0 0-.049.002c-.237.029-.392.27-.338.53.055.261.293.436.52.41.237-.026.382-.26.337-.517-.044-.249-.248-.426-.47-.426zm1.542 1.327c-.012 0-.024 0-.037.002-.234.022-.381.255-.333.513a.487.487 0 0 0 .508.408c.233-.019.37-.244.324-.494-.04-.246-.243-.429-.462-.429z" fill="url(#b)" fill-rule="evenodd" style="fill:url(#c);fill-opacity:1;stroke-width:.79724"/><path d="M89.559 54.69c.035.049.656-.039.673-.094.013-.053-.54.012-.66.077-.016.008-.016.014-.013.017m.977-.138c.018.05.639-.06.677-.119v-.004c-.03-.05-.654.059-.677.12zm-.967-.005c.04.065.687-.029.704-.103.01-.068-.568-.004-.69.077-.014.01-.02.017-.014.026m1.023-.146c.024.066.67-.048.7-.125.03-.064-.457-.003-.648.082-.04.019-.056.03-.052.043m-1.018-.043c.042.085.72-.014.732-.108.011-.083-.588-.02-.715.077-.017.011-.022.022-.017.03m1.067-.15c.025.086.698-.036.73-.131.02-.08-.489-.02-.682.082-.037.019-.057.035-.048.05m-1.069-.08c.047.1.704.009.754-.101.045-.09-.392-.075-.645.015-.08.031-.12.06-.109.086m1.107-.154c.03.096.682-.015.752-.13.045-.07-.204-.076-.474-.01-.169.042-.291.099-.278.14m1.02.047c.01.082.64-.047.725-.145.031-.037-.03-.052-.154-.04-.243.023-.576.13-.572.185m-2.128-.166c.046.115.727.022.779-.107.038-.1-.407-.096-.67.009-.083.034-.123.068-.11.098m-.082-1.505c.064.17.775.086.87-.1.068-.143-.324-.195-.651-.083-.15.05-.241.123-.22.183m1.274-.66c.055.186.78.076.887-.133.074-.15-.286-.204-.616-.093-.183.06-.293.15-.271.225m-.032-1.085c.06.21.763.12.907-.113.102-.165-.202-.256-.544-.166-.235.06-.392.183-.363.28m1.336.857c.04.187.767.052.882-.163.07-.146-.236-.193-.565-.087-.203.066-.34.17-.317.25m1.3-.273c.028.179.699.044.86-.172.093-.121-.052-.19-.312-.147-.289.045-.57.206-.548.319m-1.284-.82c.052.206.75.096.905-.144.093-.15-.13-.237-.441-.175-.274.057-.49.205-.464.318m2.64-.033c.029.192.703.033.872-.205.092-.134-.046-.205-.308-.155-.295.057-.578.236-.565.36m.055-.578c.034.206.721.048.89-.207.095-.15-.077-.226-.368-.158-.286.066-.545.244-.522.365m1.33-.376c.025.203.652.047.862-.213.11-.137.016-.226-.21-.2-.31.038-.67.267-.652.413m-5.405.612c.064.223.782.135.921-.115.104-.174-.201-.276-.557-.18-.238.06-.394.187-.364.295m-.036-.642c.068.238.793.151.938-.114.103-.197-.252-.302-.62-.183-.213.068-.349.194-.318.297m1.408.402c.06.222.772.11.92-.146.104-.17-.16-.263-.5-.18-.258.065-.444.211-.42.326m1.376-.29c.048.223.755.087.913-.175.098-.162-.125-.253-.44-.175-.28.066-.503.231-.473.35m-1.388-.355c.057.236.784.123.931-.147.105-.188-.206-.287-.56-.18-.24.072-.4.213-.371.327m1.322-2.474c.066.262.763.156.945-.147.127-.21-.12-.352-.472-.268-.288.07-.508.264-.473.415m-.046-.8c.068.278.773.17.952-.144.131-.233-.162-.383-.533-.27-.27.08-.461.264-.42.415m2.83 2.911c.03.217.672.063.878-.21.117-.158 0-.254-.258-.211-.317.053-.639.274-.62.421m.041-.658c.038.23.687.076.892-.212.114-.165-.008-.27-.27-.228-.321.053-.646.282-.622.44m-1.374-1.034c.06.258.734.125.928-.18.124-.194-.077-.32-.396-.25-.307.07-.562.277-.533.43m-.017-.77c.06.262.75.13.935-.177.125-.218-.116-.352-.463-.256-.288.08-.511.28-.472.434m-.04-.806c.067.276.761.145.941-.175.13-.226-.122-.367-.471-.27-.29.08-.51.287-.47.445m1.428-.4c.062.259.697.135.913-.18.147-.216-.028-.373-.348-.312-.32.06-.607.311-.565.491m-1.482-.435c.072.273.723.171.93-.146.155-.232-.062-.407-.412-.33-.31.066-.565.296-.518.476m1.434-.407c.069.275.715.15.922-.174.141-.224-.038-.392-.36-.333-.321.063-.609.32-.562.507m-1.502-.471c.071.287.729.19.936-.139.149-.242-.075-.424-.426-.348-.31.064-.562.304-.51.487m1.435-.405c.078.285.722.165.926-.17.149-.248-.07-.426-.416-.34-.31.078-.557.324-.51.51m1.51 3.595c.035.222.63.077.846-.21.14-.179.047-.3-.198-.272-.315.04-.676.305-.648.482m.023-.737c.042.235.648.088.863-.209.142-.198.018-.332-.262-.28-.319.057-.632.311-.601.489m0-.782c.05.249.663.103.872-.206.139-.202.008-.344-.272-.298-.321.057-.636.32-.6.504m-.019-.81c.057.261.67.121.88-.201.143-.22-.022-.375-.33-.305-.31.073-.588.328-.55.506m-.038-.842c.062.273.684.133.887-.2.134-.226-.035-.391-.34-.322-.318.07-.59.334-.547.522m1.36-.493c.057.261.607.134.831-.188.156-.232.025-.413-.264-.358-.312.06-.61.347-.566.546m-1.425-.387c.075.288.702.148.893-.198.148-.25-.064-.422-.402-.323-.296.084-.534.34-.49.521m1.366-.491c.068.27.618.148.836-.186.157-.238.017-.428-.274-.375-.318.058-.61.351-.562.56m4.94-1.432c.041.238.42.118.633-.195.172-.246.121-.462-.093-.43-.267.041-.575.403-.54.625m-1.178-.26c.057.253.505.12.71-.212.152-.25.06-.453-.183-.404-.28.058-.57.397-.527.616m1.14-.627c.047.243.43.13.643-.192.174-.267.101-.497-.149-.436-.266.062-.54.408-.493.628m1.013 2.738c.009.177.263.113.486-.122.217-.232.275-.49.103-.49-.224 0-.594.39-.59.612m.07-.81c.013.195.302.114.524-.15.206-.243.22-.49.03-.47-.236.026-.574.403-.555.62m.996-.671c.01.176.229.128.43-.095.235-.248.292-.542.12-.542-.219 0-.562.406-.55.637m-.969-.16c.025.2.322.122.54-.146.206-.25.209-.505.007-.486-.24.021-.569.407-.545.633m1.01-.678c.016.193.264.13.47-.122.222-.266.241-.55.043-.525-.227.028-.542.42-.514.647m-1.009-.184c.036.223.364.125.575-.177.188-.261.153-.504-.067-.463-.249.046-.542.416-.508.64m1.009-.681c.03.21.316.126.516-.152.19-.262.182-.524-.007-.504-.234.022-.544.423-.51.656m-1.042-.21c.043.231.373.136.58-.168.182-.27.142-.521-.083-.482-.255.043-.542.418-.497.65m1.008-.681c.04.216.332.135.528-.149.2-.28.165-.56-.057-.516-.239.05-.51.435-.47.665m.948-.705c.036.204.278.142.467-.124.195-.277.195-.579-.007-.556-.219.024-.502.438-.46.68m3.784-3.872c.017.137.095.15.183.035.187-.242.267-.778.112-.768-.136.012-.326.477-.295.733m.79 1.918c-.007.076 0 .112.024.094.105-.079.323-.795.249-.81-.054-.012-.238.476-.272.716m-.34-.055c0 .089.018.12.06.089.14-.111.344-.79.247-.807-.09-.015-.291.466-.307.718m.462-.814c-.007.09.011.124.046.09.115-.111.298-.796.218-.814-.07-.015-.244.473-.264.725m.077-.88c0 .09.02.125.06.092.122-.111.289-.804.19-.823-.078-.017-.244.475-.25.731m-.431-.075c0 .115.05.141.11.07.17-.19.297-.821.157-.8-.109.013-.283.485-.267.73m.464-.823c.007.106.035.137.08.085.149-.159.27-.844.149-.822-.093.017-.241.492-.23.737m-.485-.087c.016.126.074.148.148.056.167-.214.25-.808.115-.792-.127.01-.288.481-.263.736m.472-.823c.01.115.054.143.108.07.151-.193.233-.835.107-.815-.104.014-.24.496-.215.745m.168 2.742c-.015.088-.007.095 0 .099.064-.01.276-.777.23-.821-.047.009-.202.499-.23.722m.123-.874c-.009.08 0 .115.026.096.087-.075.263-.808.195-.827-.05-.012-.2.486-.22.731m.315-.83c-.01.089 0 .1 0 .104.074-.04.199-.808.172-.838-.046.03-.155.525-.175.735m-.236-.057c0 .082.01.12.037.1.098-.072.25-.816.172-.837-.062-.018-.202.48-.209.737m.317-.834c-.007.081.007.12.026.102.055-.055.204-.79.14-.847-.052.006-.16.511-.166.744m-.284-.065c.007.093.027.129.059.095.11-.112.225-.816.14-.84-.075-.018-.205.481-.2.745m-.01-.915c.008.106.04.138.081.088.129-.163.208-.86.096-.839-.085.016-.199.499-.178.751m.32-.843c.007.094.03.131.057.1.097-.12.167-.875.077-.852-.067.016-.155.5-.134.752m.302 1.037c0 .034-.01.067-.01.1v-.001l.092-.82c-.024.24-.057.48-.082.72m-.043-.966c0 .09.01.103.013.105.078-.038.128-.822.09-.859-.046.027-.108.535-.103.754m.25-1.696c0 .034-.006.069 0 .107v-.042l.013-.82c0 .006-.014.563-.014.755m-.022-2.201c.007.124.011.248.017.371zM88.607 42.944c.084.313.755.312.96-.002.165-.264-.145-.5-.549-.417-.271.054-.46.243-.41.419m1.469-.208c.084.315.75.288.954-.035.165-.268-.144-.497-.546-.4-.273.063-.46.26-.408.435m-.109-.961c.087.318.754.293.953-.033.167-.272-.149-.508-.55-.41-.267.064-.45.262-.403.443m-.116-.979c.091.322.756.301.955-.033.162-.274-.156-.513-.554-.417-.27.065-.447.269-.401.45m-.12-1.003c.09.329.755.31.95-.026.16-.28-.156-.521-.552-.427-.27.065-.45.27-.398.453m-.122-1.009c.09.336.75.319.941-.025.167-.297-.194-.546-.598-.418-.245.077-.392.27-.343.443m2.026 4.644c.085.3.752.252.954-.07.16-.25-.114-.465-.492-.388-.293.06-.51.274-.462.458m1.46-.307c.083.302.746.23.949-.103.158-.256-.112-.462-.487-.372-.295.07-.507.293-.462.475m-1.562-.64c.088.31.755.266.955-.066.168-.274-.147-.495-.547-.385-.273.075-.454.276-.408.451m1.463-.306c.084.309.748.24.949-.1.154-.267-.115-.472-.497-.379-.293.068-.504.293-.452.479m-1.572-.655c.087.317.756.27.951-.066.165-.279-.148-.502-.55-.393-.269.076-.45.28-.4.46m1.453-.307c.094.316.754.247.945-.099.167-.283-.146-.496-.544-.374-.27.084-.45.294-.401.473m-1.573-.674c.09.323.755.28.952-.061.158-.28-.16-.51-.557-.402-.27.075-.445.282-.395.463m1.45-.302c.095.32.758.254.949-.095.15-.288-.161-.508-.562-.385-.264.083-.44.299-.387.48m-1.581-.697c.096.326.755.286.946-.06.159-.283-.158-.515-.553-.406-.267.073-.442.283-.393.466m1.442-.3c.098.322.758.26.944-.093.154-.29-.167-.514-.559-.392-.265.083-.436.301-.385.484m-1.575-.705c.095.333.754.292.939-.056.15-.287-.163-.523-.556-.416-.263.075-.438.285-.383.472m1.428-.299c.103.328.76.268.938-.09.15-.292-.172-.518-.557-.396-.267.085-.435.301-.38.486M90.9 37.52c.098.335.749.297.93-.055.16-.305-.203-.548-.604-.405-.233.086-.379.282-.326.46m1.415-.297c.1.332.755.275.926-.086.147-.295-.171-.524-.56-.403-.257.081-.423.3-.366.489m-1.568-.731c.1.339.748.307.922-.05.151-.31-.201-.555-.598-.413-.236.085-.375.284-.324.463m1.401-.294c.103.337.75.28.922-.08.144-.315-.219-.55-.608-.394-.234.096-.37.297-.314.474m2.405 6.566c.078.302.735.207.94-.135.154-.262-.115-.458-.486-.353-.293.08-.505.31-.454.488m1.44-.405c.079.3.73.182.93-.167.143-.255-.08-.442-.43-.356-.315.079-.555.328-.5.523m-1.546-.54c.087.31.746.217.943-.13.153-.272-.118-.47-.494-.367-.288.08-.498.316-.449.498m1.44-.406c.087.306.738.193.931-.164.15-.28-.111-.468-.483-.352-.293.091-.5.332-.449.516m-1.556-.554c.092.311.748.222.94-.13.15-.274-.12-.476-.5-.372-.288.08-.495.314-.44.502m1.436-.406c.093.31.748.197.932-.162.145-.28-.122-.475-.496-.356-.286.09-.49.334-.436.518m-1.567-.57c.095.318.754.23.94-.126.154-.296-.163-.503-.553-.365-.269.09-.442.312-.387.49m1.428-.402c.099.317.752.204.936-.162.135-.282-.135-.48-.505-.365-.287.093-.489.336-.43.527m-1.574-.593c.098.32.756.236.935-.124.15-.296-.172-.509-.561-.37-.261.09-.43.314-.374.494m1.421-.402c.104.323.756.214.926-.155.144-.303-.177-.503-.558-.355-.259.102-.426.331-.368.51m-1.579-.598c.101.329.755.243.93-.12.145-.3-.178-.515-.563-.38-.261.093-.424.317-.367.5m1.406-.397c.11.323.762.216.929-.154.134-.305-.19-.51-.569-.36-.253.102-.416.331-.36.514m-1.578-.614c.108.33.757.247.925-.118.14-.3-.184-.518-.567-.383-.257.091-.418.316-.358.5m1.397-.394c.113.329.755.224.92-.148.131-.306-.195-.514-.572-.367-.254.103-.41.331-.348.515m-1.577-.627c.11.337.75.257.914-.113.13-.3-.192-.522-.565-.388-.256.09-.412.316-.349.501m1.38-.389c.11.32.703.246.89-.108.16-.3-.127-.544-.503-.424-.278.086-.456.334-.387.532m2.481 6.438c.082.298.715.162.902-.193.14-.26-.078-.44-.417-.346-.297.086-.535.35-.485.54m1.368-.494c.077.282.635.163.843-.181.16-.261-.013-.465-.332-.384-.307.075-.563.36-.51.565m-1.467-.45c.082.303.71.171.9-.19.14-.285-.118-.466-.476-.339-.28.1-.482.347-.424.529m1.363-.494c.082.288.643.172.842-.178.158-.265-.024-.472-.346-.392-.307.073-.557.362-.496.57M97.176 40c.094.309.725.178.904-.19.137-.283-.122-.47-.481-.344-.281.1-.475.349-.423.534m1.363-.493c.093.295.653.18.851-.175.16-.286-.064-.495-.403-.386-.29.093-.505.363-.448.561m-1.505-.48c.095.303.679.202.884-.146.162-.288-.067-.505-.429-.405-.292.083-.514.352-.455.551m1.355-.491c.101.3.662.187.85-.17.154-.29-.067-.503-.414-.394-.286.091-.496.367-.436.564m-1.519-.498c.105.304.688.209.878-.146.16-.285-.07-.507-.43-.41-.293.082-.513.353-.448.556m1.353-.488c.097.303.66.191.842-.168.15-.293-.078-.506-.422-.4-.284.091-.488.367-.42.568m-1.53-.507c.103.31.684.215.872-.14.157-.288-.086-.515-.436-.419-.296.084-.504.353-.436.559m1.337-.483c.107.307.667.198.842-.166.14-.291-.093-.51-.433-.402-.282.087-.48.364-.41.568m-1.535-.52c.11.312.69.22.873-.136.152-.306-.13-.537-.496-.406-.271.093-.445.347-.377.543m1.328-.48c.114.31.668.203.836-.16.145-.31-.133-.533-.482-.395-.258.102-.428.363-.354.554m-1.54-.53c.114.314.686.227.864-.135.147-.304-.137-.54-.496-.409-.271.093-.442.348-.368.543m1.311-.474c.12.313.67.21.832-.155.136-.31-.145-.536-.495-.398-.252.103-.413.36-.337.553m-5.625.59c.107.324.697.299.895-.042.167-.293-.12-.555-.497-.463-.275.067-.464.301-.398.505m1.375-.337c.108.324.7.275.89-.073.16-.296-.128-.55-.503-.445-.276.074-.452.316-.387.518m1.363-.387c.116.324.703.253.883-.101.152-.302-.136-.547-.51-.43-.267.085-.441.334-.373.531m-.225-1.029c.118.324.697.26.868-.096.147-.303-.138-.551-.504-.437-.27.086-.44.333-.364.533m1.566.601c.121.318.687.232.853-.13.142-.303-.147-.54-.499-.415-.267.094-.43.349-.354.545m1.296-.467c.122.311.668.214.822-.151.127-.311-.154-.54-.498-.402-.253.099-.406.357-.324.553m-1.545-.556c.124.32.685.239.846-.123.137-.304-.152-.544-.508-.422-.256.093-.412.349-.338.545m1.277-.46c.128.314.67.219.813-.146.123-.307-.163-.54-.499-.407-.248.1-.399.36-.314.554m-.283-1.02c.133.317.67.224.807-.14.12-.324-.21-.56-.55-.391-.223.11-.339.346-.257.53m-.304-1.019c.142.319.67.232.794-.134.116-.327-.216-.562-.548-.393-.219.107-.327.345-.246.527m3.608 10.403c.073.28.61.149.807-.203.151-.265-.017-.465-.323-.376-.29.084-.536.375-.484.579m1.254-.565c.067.265.544.146.75-.187.167-.267.038-.487-.245-.417-.295.071-.557.388-.505.604m-1.358-.38c.08.29.614.159.806-.199.15-.269-.025-.47-.332-.384-.29.082-.531.377-.474.583m1.255-.562c.073.268.553.152.749-.184.163-.272.025-.495-.258-.424-.296.068-.555.386-.491.608m-1.386-.393c.086.295.626.163.813-.196.136-.272-.047-.477-.351-.391-.292.08-.525.377-.462.587m1.248-.561c.086.273.566.158.759-.183.153-.272.014-.5-.278-.43-.297.069-.545.389-.48.613m-1.404-.407c.095.298.635.169.81-.194.147-.293-.072-.5-.4-.384-.274.1-.476.381-.41.578m1.244-.561c.091.278.572.165.76-.176.158-.294-.022-.525-.333-.426-.278.09-.496.393-.427.602m-1.428-.422c.108.3.642.172.815-.192.137-.294-.086-.505-.414-.388-.269.096-.461.38-.4.58m1.24-.557c.098.278.582.168.759-.177.158-.292-.032-.528-.344-.43-.28.089-.488.394-.414.607m-1.44-.433c.112.305.649.183.812-.184.128-.296-.102-.51-.425-.394-.27.098-.457.378-.386.578m1.229-.55c.103.282.586.175.76-.17.146-.295-.047-.532-.359-.435-.278.084-.48.391-.401.606m-1.453-.44c.117.306.651.183.809-.184.13-.312-.142-.53-.476-.382-.249.112-.401.375-.333.565m1.218-.549c.115.285.594.179.758-.164.149-.312-.087-.555-.411-.425-.257.1-.428.388-.347.59m-1.46-.451c.122.306.653.19.8-.178.126-.315-.148-.533-.484-.388-.243.11-.39.373-.316.566m1.202-.543c.12.289.596.184.755-.162.142-.31-.099-.554-.419-.427-.254.101-.42.388-.336.59m2.486 6.212c.062.263.516.133.708-.206.162-.275.039-.487-.233-.414-.28.079-.53.404-.475.62m1.138-.628c.056.254.446.143.652-.185.167-.273.08-.511-.17-.454-.27.059-.538.413-.482.639m-1.246-.315c.073.268.524.14.717-.204.151-.274.019-.495-.254-.418-.28.076-.521.403-.463.622m1.135-.627c.072.256.462.152.661-.182.163-.276.065-.517-.188-.463-.276.06-.535.414-.473.645m-1.276-.328c.083.273.545.146.725-.2.15-.277 0-.498-.27-.423-.282.076-.52.4-.455.623m1.135-.626c.079.262.477.159.665-.178.169-.295.039-.546-.24-.458-.27.083-.493.419-.425.636m-1.298-.336c.09.275.548.15.725-.196.15-.298-.027-.524-.324-.418-.267.096-.47.406-.4.614m1.13-.625c.083.26.488.153.67-.175.16-.296.019-.547-.259-.461-.271.08-.484.416-.41.636m-1.325-.353c.098.28.558.155.725-.193.14-.297-.042-.526-.339-.423-.265.095-.46.405-.386.616m1.12-.618c.101.273.537.14.692-.21.132-.303-.047-.529-.329-.417-.253.101-.435.417-.362.627m-1.34-.36c.107.28.566.162.727-.186.133-.302-.06-.533-.35-.428-.268.092-.459.402-.377.614m1.11-.614c.109.277.548.147.692-.206.126-.303-.06-.53-.343-.417-.253.097-.428.413-.35.623m-1.353-.368c.111.28.572.165.723-.182.138-.317-.098-.552-.402-.416-.249.106-.4.398-.321.598m1.1-.608c.118.28.557.15.693-.203.12-.319-.107-.548-.397-.405-.232.116-.375.41-.296.608m-1.373-.378c.121.283.578.168.722-.18.126-.315-.106-.554-.417-.419-.24.107-.39.397-.305.599m1.09-.601c.123.279.56.154.688-.198.117-.32-.118-.55-.41-.41-.228.115-.365.41-.278.608m2.463 6.101c.054.238.397.143.594-.163.19-.292.114-.556-.143-.49-.252.065-.5.427-.451.653m1.015-.681c.05.223.345.146.535-.14.193-.289.149-.578-.082-.535-.244.044-.51.434-.453.675m-1.124-.26c.061.239.41.145.601-.16.184-.294.096-.563-.16-.498-.26.067-.503.428-.441.659m1.013-.683c.062.238.39.135.57-.176.167-.297.083-.566-.158-.495-.243.074-.472.442-.412.67m-1.153-.27c.073.263.452.145.629-.197.157-.299.028-.542-.239-.451-.25.09-.459.43-.39.649m1.009-.68c.074.24.403.14.575-.172.163-.299.065-.569-.18-.498-.243.07-.465.44-.395.67m-1.186-.278c.087.256.469.14.634-.192.152-.302.016-.548-.25-.455-.256.088-.457.427-.384.647m1.004-.678c.083.244.422.147.585-.169.153-.299.047-.568-.197-.499-.253.068-.463.437-.388.668m-1.212-.292c.093.259.484.144.639-.189.142-.302-.007-.551-.27-.46-.257.089-.447.427-.369.649m1.004-.674c.085.244.424.147.585-.165.16-.313.014-.592-.252-.492-.241.094-.415.437-.333.657m-1.241-.292c.1.26.491.147.64-.185.137-.302-.018-.553-.286-.463-.255.085-.441.423-.354.648m.995-.67c.102.257.47.134.605-.2.124-.304-.031-.55-.285-.455-.241.09-.407.435-.32.655m-1.256-.301c.11.26.498.149.638-.182.133-.315-.06-.574-.338-.45-.241.103-.39.422-.3.632m.982-.663c.109.259.478.14.605-.198.12-.315-.07-.57-.333-.44-.224.11-.363.43-.272.638m-1.28-.31c.118.261.506.155.638-.177.129-.312-.07-.573-.35-.452-.238.101-.383.42-.288.629m.971-.655c.12.26.491.143.61-.193.11-.318-.089-.569-.352-.443-.22.108-.352.429-.258.636m2.42 5.998c.048.214.299.152.48-.116.203-.295.167-.62-.057-.57-.226.053-.475.45-.422.686m.89-.73c.037.198.25.154.418-.09.203-.288.191-.636-.008-.61-.216.027-.467.451-.411.7m-1-.211c.058.225.338.145.513-.15.174-.293.114-.585-.105-.538-.236.052-.469.449-.407.688m.887-.732c.054.217.291.153.456-.122.182-.302.131-.628-.083-.574-.218.057-.433.46-.373.696m-1.033-.217c.065.23.355.148.518-.147.173-.31.087-.613-.154-.532-.227.078-.432.452-.364.68m.88-.73c.068.217.308.156.468-.119.176-.302.116-.63-.103-.576-.22.055-.434.459-.365.696m-1.06-.223c.078.24.395.136.544-.181.142-.304.037-.574-.195-.497-.234.075-.43.448-.349.678m.877-.726c.075.23.35.143.49-.154.153-.314.058-.615-.171-.531-.217.08-.393.46-.319.685m-1.098-.235c.087.24.408.137.55-.181.141-.315 0-.593-.246-.485-.226.098-.385.445-.304.666m.875-.722c.084.23.36.145.499-.154.146-.31.032-.614-.196-.53-.224.08-.385.458-.303.684m-1.127-.236c.1.242.421.14.555-.177.135-.314-.014-.591-.265-.486-.23.097-.377.447-.29.663m.868-.713c.095.227.37.145.507-.152.14-.311.013-.614-.22-.53-.221.078-.383.454-.287.682m-1.15-.245c.103.245.427.143.556-.171.127-.316-.033-.594-.284-.488-.226.095-.37.44-.273.66m.859-.707c.106.238.412.13.526-.187.111-.318-.048-.59-.28-.48-.216.1-.343.45-.246.667m-1.178-.249c.118.24.442.143.564-.17.12-.312-.052-.59-.304-.485-.227.09-.367.434-.26.655m.85-.7c.115.238.424.132.53-.182.106-.317-.066-.589-.3-.48-.215.098-.334.445-.23.662m-7.469 3.35c.127.311.656.197.79-.172.117-.313-.16-.535-.488-.39-.242.108-.38.37-.302.562m1.185-.534c.123.29.6.19.748-.156.132-.31-.11-.556-.431-.432-.25.1-.404.385-.317.588m-1.469-.474c.132.312.654.202.785-.166.11-.313-.178-.537-.496-.395-.237.105-.373.368-.289.561m1.164-.526c.134.288.603.194.744-.15.126-.309-.124-.558-.439-.435-.248.096-.395.381-.305.585M98 31.001c.132.295.618.214.763-.124.136-.324-.154-.58-.489-.433-.234.103-.36.363-.274.557m1.15-.517c.139.29.602.198.736-.143.123-.325-.17-.577-.488-.422-.223.11-.34.374-.249.565m-1.471-.493c.138.296.613.219.752-.118.129-.322-.164-.581-.494-.436-.228.1-.348.36-.258.554m1.128-.51c.141.291.602.204.726-.135.116-.325-.181-.578-.49-.424-.222.109-.331.37-.236.56m-.368-1.005c.144.29.603.205.714-.133.108-.322-.19-.575-.499-.423-.214.102-.313.363-.215.556m-.387-.996c.156.288.602.208.71-.128.097-.317-.205-.573-.505-.424-.211.1-.303.359-.205.552m-.823-1.986c.163.29.594.218.68-.112.08-.322-.263-.581-.541-.406a.387.387 0 0 0-.14.518m3.681 6.425c.126.287.581.174.717-.175.12-.312-.126-.551-.425-.42-.242.105-.384.396-.292.595m1.071-.593c.13.283.568.158.688-.192.105-.317-.134-.55-.424-.41-.225.112-.355.404-.264.602m-1.392-.398c.133.286.587.18.71-.17.11-.31-.135-.551-.436-.423-.234.105-.37.391-.274.593m1.06-.584c.137.283.566.164.68-.186.1-.315-.148-.55-.434-.413-.225.11-.345.4-.245.6m-1.405-.408c.141.286.59.183.706-.165.11-.328-.177-.57-.483-.405-.211.114-.313.381-.223.57m1.042-.575c.146.281.572.167.675-.18.094-.33-.19-.566-.478-.395-.2.12-.293.39-.197.575m-1.407-.417c.147.287.591.189.698-.155.101-.327-.192-.572-.492-.41-.206.115-.304.378-.206.565m1.02-.563c.155.283.577.172.67-.173.085-.329-.208-.566-.488-.395-.197.116-.282.381-.183.568m-1.41-.432c.153.287.592.19.692-.151.09-.32-.206-.566-.498-.41-.203.11-.294.374-.194.561m1-.552c.16.282.58.175.66-.168.08-.324-.22-.563-.493-.397-.193.117-.27.379-.168.565m-1.405-.433c.158.286.589.195.677-.145.084-.32-.218-.563-.504-.41-.196.108-.282.366-.173.555m.974-.54c.165.28.583.179.653-.16.069-.324-.234-.559-.504-.399a.424.424 0 0 0-.15.56m-1.403-.443c.167.285.588.199.665-.136.082-.328-.265-.577-.537-.392a.403.403 0 0 0-.128.528m.954-.525c.158.262.543.19.633-.12.091-.328-.222-.6-.502-.43a.406.406 0 0 0-.13.55m-1.406-.45c.173.283.59.202.658-.129.065-.325-.279-.575-.542-.393a.394.394 0 0 0-.116.522m.93-.511c.165.263.544.195.622-.111.083-.326-.235-.594-.51-.43-.171.104-.23.359-.111.54m3.868 6.21c.127.262.513.156.64-.17.115-.314-.091-.573-.368-.455-.236.1-.37.415-.272.626m.958-.648c.13.261.5.146.61-.185.102-.317-.106-.57-.365-.446-.225.107-.346.426-.245.631m-1.31-.325c.135.261.525.16.639-.166.109-.313-.11-.572-.382-.457-.231.1-.363.412-.257.623m.947-.637c.137.258.501.15.602-.183.096-.313-.12-.565-.378-.445-.22.105-.334.42-.224.628m-1.326-.335c.145.262.523.165.636-.161.11-.327-.15-.588-.432-.44-.205.113-.304.404-.204.6m.93-.625c.148.26.51.153.606-.177.092-.328-.165-.583-.429-.427-.199.118-.28.41-.177.604m-1.33-.343c.147.26.529.166.627-.156.098-.321-.165-.586-.441-.437-.205.109-.296.398-.186.593m.914-.613c.147.256.511.152.596-.172.085-.325-.18-.58-.44-.427a.457.457 0 0 0-.156.6m-1.348-.36c.156.26.532.171.625-.147.09-.321-.183-.582-.454-.441a.44.44 0 0 0-.171.587m.894-.6c.16.256.521.157.596-.163.069-.322-.2-.577-.454-.427a.445.445 0 0 0-.142.59m-1.347-.36c.163.262.538.176.62-.14.084-.335-.224-.598-.499-.42a.43.43 0 0 0-.12.56m.872-.588c.166.256.527.162.586-.155.075-.34-.236-.591-.488-.406-.168.12-.212.385-.098.561m-1.346-.365c.166.258.533.178.607-.135.074-.33-.236-.59-.505-.415-.17.111-.217.37-.102.55m.849-.573c.17.255.525.163.58-.149.058-.332-.255-.586-.503-.405-.161.12-.197.377-.077.554m-1.35-.374c.173.257.538.18.599-.125.068-.326-.254-.588-.51-.417-.167.112-.21.365-.09.542m.827-.556c.179.252.527.165.574-.141.05-.33-.267-.58-.51-.402-.16.114-.189.369-.064.543m4.026 5.99c.123.24.446.146.56-.166.116-.327-.091-.61-.35-.471-.21.11-.316.431-.21.636m.836-.692c.126.24.431.138.53-.175.1-.332-.106-.61-.352-.465-.191.116-.28.44-.178.64m-1.219-.261c.143.254.486.134.574-.198.079-.315-.134-.562-.38-.435-.207.11-.305.427-.194.633m.824-.681c.136.239.441.14.533-.172.098-.327-.122-.604-.363-.461-.197.112-.28.432-.17.633m-1.23-.27c.148.256.492.14.567-.192.08-.33-.174-.578-.419-.416a.485.485 0 0 0-.147.608m.812-.669c.137.239.447.141.526-.167.085-.324-.14-.598-.379-.46-.194.11-.266.429-.147.627m-1.252-.276c.157.253.5.142.571-.185.068-.326-.194-.573-.436-.415a.467.467 0 0 0-.135.6m.797-.654c.149.235.457.142.531-.162.077-.32-.163-.595-.402-.46-.189.108-.255.422-.13.622m-1.264-.29c.163.251.506.14.564-.18.06-.321-.207-.57-.447-.412-.182.116-.237.402-.117.591m.78-.643c.155.235.464.145.528-.155.074-.335-.204-.61-.442-.437-.166.12-.211.407-.087.592m-1.27-.29c.17.252.51.148.56-.171.05-.338-.258-.584-.491-.394a.44.44 0 0 0-.068.565m.76-.626c.164.23.47.145.524-.15.065-.33-.22-.602-.456-.436-.163.12-.196.402-.068.586m-1.281-.297c.176.248.515.149.555-.164.044-.334-.269-.577-.503-.39-.15.122-.176.382-.053.554m.745-.614c.172.232.474.151.52-.142.052-.325-.24-.592-.47-.429-.159.113-.184.394-.05.57m-1.288-.3c.173.234.491.163.54-.121.06-.316-.237-.594-.476-.443-.169.107-.203.382-.064.565m.722-.596c.181.229.477.148.519-.134.045-.32-.258-.588-.482-.43-.159.112-.175.387-.037.564m6.026 12.348c.048.2.254.153.4-.096.184-.307.147-.675-.062-.608-.199.057-.394.467-.338.704m-.153-.945c.058.203.267.156.411-.093.18-.308.13-.675-.083-.611-.202.06-.392.468-.328.704m.75-.768c.052.189.23.156.36-.068.172-.296.146-.685-.048-.65-.194.032-.382.47-.312.718m-.94-.177c.072.218.305.148.443-.13.154-.305.075-.631-.127-.573-.214.058-.39.467-.315.703m.75-.764c.064.2.26.149.383-.103.154-.31.088-.675-.112-.61-.195.065-.353.478-.272.713m-.974-.187c.078.216.312.15.442-.128.155-.32.05-.659-.178-.564-.203.086-.354.466-.264.692m.74-.759c.073.2.274.149.396-.104.148-.309.067-.672-.138-.607-.197.061-.35.475-.258.711m-1.007-.187c.095.227.355.136.469-.163.12-.312 0-.613-.22-.525-.202.082-.34.463-.249.688m.733-.754c.09.21.315.135.423-.134.13-.324.011-.658-.202-.56-.194.088-.313.471-.22.694m-1.037-.188c.107.225.368.136.477-.161.117-.312-.02-.611-.236-.525-.214.082-.345.46-.241.686m.73-.748c.1.21.323.139.429-.135.122-.318-.013-.65-.225-.556-.194.088-.306.468-.203.691m-1.067-.193c.112.224.38.138.483-.155.112-.328-.058-.633-.286-.513-.199.106-.303.454-.197.668m.724-.738c.11.222.358.129.446-.17.097-.327-.076-.628-.285-.503-.184.11-.27.461-.161.673m2.294 5.792c.025.163.144.159.26-.01.197-.285.224-.76.04-.716-.166.036-.35.478-.3.726m.61-.802c.026.15.119.157.217.016.184-.274.22-.8.047-.75-.148.039-.308.489-.265.734m-.112-.94c.035.165.148.159.25-.015.173-.288.173-.765 0-.72-.154.042-.31.488-.25.736m-.766-.14c.047.177.194.158.31-.04.175-.297.154-.725-.038-.684-.177.037-.341.478-.272.724m-.196-.936c.062.187.226.151.338-.075.16-.318.096-.718-.099-.643-.177.067-.316.484-.24.718m.61-.799c.054.175.192.153.293-.046.148-.3.104-.726-.073-.682-.166.041-.3.486-.22.729m-.846-.145c.073.197.26.142.364-.11.134-.312.048-.675-.141-.607-.182.068-.31.485-.223.717m.601-.792c.07.184.225.144.32-.083.135-.317.052-.717-.13-.638-.167.074-.274.49-.19.721m-.877-.142c.082.198.27.142.374-.108.128-.311.028-.671-.167-.602-.187.066-.307.479-.207.71m.6-.786c.077.184.236.146.328-.08.127-.316.03-.713-.16-.633-.167.07-.266.484-.167.713m-.914-.142c.088.197.28.143.381-.109.129-.326-.008-.694-.215-.585-.18.09-.27.474-.166.694m.593-.78c.089.196.267.138.353-.113.106-.329-.03-.694-.219-.584-.166.097-.241.48-.134.698m-.946-.145c.108.21.317.136.402-.141.097-.318-.05-.647-.25-.546-.178.088-.263.468-.152.687m2.793 4.93c.022.14.1.154.174.036.17-.244.212-.792.066-.781-.13.008-.285.48-.24.745m.469-.828c.02.129.08.15.141.059.145-.218.19-.822.06-.81-.117.011-.243.49-.201.751m-.581-.112c.03.14.112.155.191.04.161-.24.188-.795.038-.784-.141.012-.289.484-.23.744m.47-.828c.026.129.087.154.153.06.153-.218.177-.821.032-.809-.122.017-.242.492-.185.75m-.158-.932c.034.139.109.153.184.032.143-.254.127-.833-.026-.774-.128.048-.226.497-.157.742m-.669-.109c.049.162.164.151.25-.019.142-.29.1-.765-.067-.717-.152.046-.266.493-.183.736m.467-.821c.045.147.138.153.206.006.14-.278.093-.798-.065-.744-.134.05-.221.498-.141.738m-.71-.111c.057.159.178.152.26-.024.142-.285.078-.757-.094-.707-.157.046-.258.487-.166.73m.462-.815c.054.145.148.146.22.002.136-.277.07-.79-.093-.735-.139.047-.221.492-.127.733m-.748-.107c.074.173.206.146.286-.053.126-.309.022-.748-.153-.664-.153.074-.231.49-.133.717m.458-.809c.068.158.18.146.248-.025.118-.287.027-.754-.132-.699-.149.047-.217.487-.116.724m-.329-.906c.084.168.204.14.272-.058.098-.307-.03-.74-.188-.653-.146.076-.19.49-.084.711m-.368-.897c.088.167.217.14.28-.055.098-.307-.048-.735-.219-.648-.145.078-.182.483-.061.703m2.102 5.615c.016.118.056.148.106.074.127-.186.166-.845.052-.828-.097.011-.2.501-.158.754m.318-.843c.016.107.045.14.08.09.106-.152.133-.865.04-.849-.079.016-.156.505-.12.76m-.432-.098c.02.12.07.15.119.078.133-.19.153-.844.021-.83-.103.017-.192.494-.14.752m.32-.84c.02.108.055.139.092.087.113-.152.119-.865.01-.842-.09.016-.15.495-.102.754m-.482-.09c.035.126.099.149.147.056.134-.222.117-.822-.013-.804-.118.017-.196.492-.133.748m.322-.84c.03.117.073.145.116.07.11-.19.087-.844-.027-.82-.098.018-.156.494-.09.75m-.524-.084c.044.134.118.149.173.029.121-.256.071-.833-.07-.77-.12.048-.182.502-.103.741m.316-.84c.04.118.088.145.132.072.113-.19.07-.839-.057-.815-.104.018-.152.492-.075.744m-.567-.086c.053.137.132.147.19.029.119-.255.045-.823-.099-.764-.127.052-.176.498-.09.735m.315-.832c.045.126.11.144.154.05.118-.24.033-.856-.103-.786-.107.053-.136.502-.05.736m-.606-.075c.062.143.154.143.208 0 .115-.278.013-.789-.133-.727-.135.048-.174.49-.075.727m.314-.825c.055.133.129.143.175.022.098-.253-.01-.817-.141-.751-.115.054-.132.496-.034.729m-.65-.072c.078.152.18.14.237-.034.091-.3-.04-.779-.192-.68-.123.08-.146.492-.044.714m.315-.818c.062.131.139.139.185.02.098-.25-.03-.807-.173-.74-.113.052-.124.49-.012.72m-.685-.072c.08.152.188.139.242-.032.094-.297-.057-.767-.218-.671-.128.08-.14.489-.024.703m.306-.808c.076.138.168.136.21-.005.081-.274-.06-.766-.208-.704-.123.051-.123.483 0 .709m-3.99 4.49c.12.223.388.14.485-.154.107-.321-.079-.627-.307-.508-.199.104-.289.448-.177.662m.709-.73c.121.223.37.131.454-.163.084-.325-.098-.625-.31-.5-.183.107-.26.453-.144.664m-1.116-.205c.137.236.424.128.5-.182.078-.332-.14-.602-.363-.456-.183.121-.247.441-.137.638m.703-.716c.13.22.38.132.452-.16.082-.322-.114-.618-.325-.498-.184.106-.252.45-.127.658m-1.134-.209c.141.234.431.13.494-.178.071-.326-.16-.595-.379-.452-.178.115-.24.435-.115.63m.684-.705c.14.22.39.133.461-.156.071-.317-.136-.611-.35-.492-.18.102-.242.441-.111.648m-1.152-.213c.15.231.438.131.498-.176.058-.319-.18-.585-.4-.444-.176.113-.229.425-.098.62m.67-.693c.15.219.4.134.46-.15.074-.33-.174-.627-.39-.47-.163.115-.196.43-.07.62m-1.173-.226c.162.232.45.133.496-.169.055-.335-.218-.601-.441-.423-.152.124-.178.412-.055.592m.66-.676c.153.214.41.134.461-.147.063-.325-.193-.618-.412-.466-.158.116-.183.425-.05.613m-1.186-.224c.164.23.457.133.495-.162.043-.331-.24-.596-.455-.422-.154.123-.172.404-.04.584m.645-.66c.165.21.415.135.463-.14.05-.322-.214-.612-.427-.465-.162.112-.178.416-.036.604m-1.199-.23c.174.228.458.135.49-.156.039-.324-.256-.584-.47-.417-.15.119-.159.397-.02.574m.626-.647c.172.211.423.136.464-.134.04-.313-.238-.598-.444-.455-.159.106-.17.405-.02.59m-1.213-.235c.183.223.466.138.492-.15.024-.317-.279-.575-.485-.412-.144.115-.149.387-.007.562m.614-.628c.175.208.427.138.457-.128.034-.319-.282-.606-.482-.433-.132.118-.124.39.025.56m4.214 5.523c.117.207.333.136.409-.136.093-.315-.074-.64-.273-.544-.183.09-.256.464-.136.68m.58-.757c.109.19.296.134.368-.11.095-.323-.072-.682-.266-.575-.167.092-.224.47-.102.685m-1.003-.152c.12.2.345.132.418-.134.084-.33-.115-.659-.323-.525-.171.11-.217.455-.095.659m.57-.75c.123.2.327.126.382-.142.074-.33-.132-.653-.319-.515-.156.112-.188.458-.063.658m-1.028-.151c.135.215.377.121.426-.168.06-.318-.154-.607-.35-.484-.168.108-.21.449-.076.652m.56-.736c.136.201.338.127.39-.14.061-.325-.151-.647-.345-.51-.154.109-.18.45-.045.65m-1.052-.159c.148.213.386.125.43-.16.049-.332-.195-.622-.391-.462-.15.123-.172.435-.04.622m.552-.719c.14.199.346.127.392-.137.056-.322-.173-.635-.366-.501-.15.107-.169.44-.026.638m-1.082-.168c.159.212.396.125.436-.156.04-.326-.218-.611-.41-.455-.151.118-.162.425-.026.61m.54-.705c.15.195.36.129.399-.13.046-.315-.196-.628-.387-.498-.154.106-.162.433-.011.628m-1.094-.165c.164.21.4.126.43-.15.04-.318-.231-.604-.424-.452-.147.117-.15.421-.007.602m.527-.69c.155.195.368.129.4-.124.037-.324-.241-.637-.427-.475-.134.118-.122.42.027.6m-1.112-.167c.172.204.408.126.43-.144.028-.316-.253-.593-.446-.447-.142.113-.136.41.017.59m.51-.673c.166.19.372.128.407-.122.03-.313-.265-.622-.448-.465-.131.114-.111.41.04.587m-1.125-.172c.177.2.417.127.427-.136.02-.322-.297-.601-.479-.422-.123.122-.098.393.052.558m.495-.651c.183.194.404.111.406-.152 0-.32-.318-.588-.478-.406-.116.125-.074.393.072.558m4.698 4.504c.103.174.248.13.297-.092.078-.321-.099-.714-.267-.592-.133.098-.153.475-.03.684m-.882-.107c.118.188.29.13.343-.114.069-.318-.114-.668-.296-.56-.152.096-.18.466-.047.674m-.477-.875c.125.185.304.128.35-.113.065-.314-.136-.658-.316-.549-.156.093-.178.457-.034.662m.427-.758c.12.172.273.13.315-.085.066-.312-.144-.693-.315-.575-.14.094-.14.46 0 .66m-.94-.106c.135.184.315.127.356-.11.06-.32-.18-.67-.357-.53-.142.111-.138.448 0 .64m.422-.742c.135.178.3.118.328-.12.04-.319-.202-.664-.363-.516-.126.114-.107.447.035.636m-.973-.115c.153.19.347.119.368-.142.028-.316-.212-.619-.383-.486-.14.109-.135.438.015.628m.416-.728c.14.175.31.12.334-.114.03-.315-.223-.653-.385-.51-.127.11-.102.438.051.624m-.99-.111c.157.19.35.12.368-.138.025-.307-.23-.604-.407-.475-.142.105-.122.428.039.613m.4-.708c.147.17.318.116.34-.114.028-.306-.242-.638-.405-.5-.128.11-.093.431.065.614m-1.015-.114c.17.187.36.117.377-.132.016-.314-.28-.615-.445-.453-.122.118-.086.415.068.585m.393-.693c.157.17.334.113.345-.106.021-.302-.263-.626-.426-.49-.128.104-.084.417.08.596m-1.033-.114c.169.182.369.117.377-.126.007-.308-.3-.602-.464-.444-.119.114-.076.402.087.57m.38-.675c.163.165.34.113.352-.104.01-.292-.287-.61-.447-.476-.126.1-.077.405.096.58m4.244 5.056c.095.16.218.132.264-.065.07-.3-.096-.72-.248-.63-.136.079-.141.48-.016.695m.304-.795c.091.146.195.129.23-.037.065-.295-.114-.758-.255-.658-.118.08-.1.482.025.694m-.757-.066c.104.157.233.127.275-.064.066-.297-.12-.708-.275-.62-.135.074-.135.473 0 .684m.3-.788c.096.146.205.131.24-.035.063-.29-.133-.742-.28-.647-.122.08-.1.478.04.682m-.784-.063c.114.169.254.121.284-.092.043-.312-.173-.69-.32-.57-.126.102-.109.463.036.662m.291-.771c.108.152.23.119.254-.067.038-.296-.17-.694-.31-.604-.124.08-.092.468.056.67m-.82-.063c.129.166.27.118.293-.093.041-.304-.19-.674-.345-.556-.13.098-.098.454.052.649m.285-.758c.117.151.244.12.269-.068.034-.3-.209-.704-.354-.578-.11.1-.062.458.085.646m-.852-.068c.133.16.28.117.304-.091.034-.299-.212-.662-.368-.544-.13.092-.095.445.064.635m.28-.742c.126.147.254.114.276-.066.032-.294-.227-.692-.375-.566-.112.097-.056.446.1.632m-.876-.062c.138.158.293.114.307-.089.03-.292-.233-.644-.39-.532-.13.091-.089.433.083.62m.275-.723c.139.153.275.108.28-.095.008-.294-.255-.64-.396-.524-.112.095-.05.435.116.619m-.908-.064c.159.167.32.107.32-.114 0-.302-.287-.619-.432-.478-.115.106-.05.419.112.592m.27-.707c.144.151.29.105.29-.092 0-.3-.3-.644-.431-.495-.1.11-.027.418.14.587m-.928-.061c.164.159.329.103.318-.113 0-.292-.302-.602-.45-.466-.112.105-.043.408.132.579m.256-.688c.158.146.303.104.303-.09-.007-.29-.322-.628-.46-.483-.096.108-.014.406.157.573m6.543 11.178c.007.088.024.128.04.109.043-.052.062-.8-.007-.87-.052.022-.063.539-.036.76m-.279-.084c.017.095.046.131.07.1.095-.12.084-.882-.012-.857-.067.016-.103.504-.058.757m-.16-.928c.027.105.057.138.091.086.092-.158.051-.864-.048-.838-.076.02-.105.503-.043.752m-.208-.918c.033.105.075.136.105.083.098-.158.038-.857-.073-.83-.088.02-.11.494-.031.747m.164-.845c.03.092.06.127.085.092.084-.125 0-.872-.097-.839-.07.022-.06.503.012.747m-.414-.068c.037.111.084.137.122.065.09-.192.009-.833-.11-.806-.095.021-.106.493-.012.74m.163-.838c.03.099.07.13.098.078.08-.162-.03-.85-.128-.82-.077.025-.06.495.03.742m-.461-.057c.051.12.11.139.148.043.086-.236-.034-.844-.159-.771-.09.055-.087.499.01.728m.162-.833c.049.112.095.134.12.06.07-.192-.058-.823-.16-.79-.089.022-.058.488.04.73m-.5-.05c.055.118.12.137.159.044.093-.24-.05-.833-.18-.762-.1.054-.088.493.022.718m.161-.825c.049.11.101.132.132.057.075-.19-.076-.812-.186-.78-.096.026-.06.486.054.723m-.539-.043c.067.129.142.134.177.015.072-.25-.087-.793-.219-.726-.106.057-.08.489.042.711m.154-.814c.063.114.127.127.154.036.068-.237-.111-.821-.23-.745-.088.058-.038.488.076.709m1.729 4.52c.019.094.03.104.033.11.063-.033-.028-.833-.057-.87-.042.027-.012.539.024.76m-.161-.924c.02.082.037.12.052.103.056-.08-.033-.886-.095-.857-.041.02-.015.504.043.754m-.208-.913c.026.092.053.128.072.092.048-.114-.064-.866-.128-.838-.05.022-.01.504.056.746m-.542-2.619c.034.088.064.12.077.087.038-.12-.144-.848-.207-.814-.046.027.035.497.13.727m-.348-.034c.047.099.087.127.108.073.064-.16-.108-.826-.206-.79-.075.028-.01.486.098.717m.007-.824c.042.085.073.116.086.082.052-.12-.152-.835-.229-.798-.054.026.039.489.143.716m-.39-.024c.058.104.106.126.128.051.048-.191-.134-.796-.238-.76-.085.03-.016.479.11.71m.007-.819c.051.094.091.12.107.066.042-.161-.176-.81-.259-.77-.064.032.03.48.152.704m1.571 4.453c.007.032.01.06.013.093l-.111-.728.098.635m-1.261-4.437c.038.078.062.11.073.09.035-.076-.208-.838-.259-.8-.035.028.085.487.186.71m-.379-.833c.047.085.078.116.085.08.035-.123-.222-.818-.281-.779-.05.032.082.483.196.7m-1.066 1.556c.087.132.177.125.207-.01.057-.283-.152-.776-.286-.67-.104.084-.064.478.079.68m-.501-.823c.102.14.204.123.223-.04.038-.287-.186-.724-.318-.626-.106.082-.05.468.095.666m.154-.78c.09.127.177.12.193-.019.033-.275-.206-.752-.326-.644-.09.083-.014.47.133.664m-.69-.026c.11.137.216.119.235-.042.03-.282-.205-.708-.346-.613-.107.08-.045.458.11.655m.152-.766c.097.125.188.115.204-.02.03-.27-.227-.737-.352-.627-.093.08-.008.456.148.647m-.728-.029c.125.144.239.109.244-.072.011-.295-.256-.685-.378-.556-.1.1-.024.447.134.628m.146-.749c.112.132.213.11.22-.046.007-.276-.255-.688-.378-.588-.096.08-.01.45.158.634m-.755-.02c.134.14.249.105.256-.07.008-.289-.277-.67-.404-.544-.097.098-.018.435.148.613m.145-.73c.12.126.222.104.229-.048.007-.27-.276-.67-.4-.573-.105.08-.008.438.171.62m-.788-.018c.135.134.262.104.267-.071 0-.28-.298-.65-.427-.528-.104.096-.012.424.16.599m.143-.715c.124.123.234.102.234-.048.01-.276-.311-.677-.432-.543-.09.096.02.423.198.591m-.82-.017c.159.14.29.094.274-.097-.023-.29-.344-.618-.458-.47-.089.11.01.406.184.567m.137-.695c.145.129.259.095.246-.074-.022-.272-.339-.621-.45-.5-.093.096.021.41.204.574m3.645 2.991c.066.098.117.114.13.043.036-.198-.231-.802-.314-.72-.064.062.045.47.184.677m-.512-.005c.09.117.161.117.172.005.026-.243-.218-.745-.327-.672-.088.06.008.465.155.667m.011-.778c.07.095.125.111.141.038.042-.193-.246-.783-.34-.701-.072.06.051.461.2.663m-.55.002c.091.112.169.112.183.002.024-.24-.238-.727-.353-.655-.094.06.01.456.17.653m.01-.765c.081.1.143.106.155.019.023-.224-.263-.748-.366-.666-.077.06.05.453.21.647m-.588.002c.103.119.19.107.192-.026.007-.264-.28-.71-.386-.602-.082.082.03.447.194.628m.007-.75c.1.108.167.106.172-.004 0-.232-.288-.7-.388-.627-.086.063.048.447.216.631m-.621.016c.116.113.198.102.205-.027.007-.26-.295-.693-.407-.586-.084.082.033.434.202.613m.009-.733c.103.1.178.1.181-.008.007-.24-.323-.712-.421-.598-.068.083.068.433.24.606m-.652.018c.126.12.22.097.21-.054-.014-.273-.34-.666-.439-.53-.07.098.052.42.229.584m0-.714c.118.107.2.092.194-.032-.019-.254-.343-.666-.443-.556-.075.08.07.422.249.588m-.683.022c.132.116.231.093.22-.053-.019-.266-.357-.647-.46-.513-.074.096.057.41.24.566m0-.695c.121.105.208.09.203-.034-.02-.245-.362-.642-.463-.535-.082.083.068.405.26.57m3.96 4.377c.052.083.092.107.101.071.038-.12-.234-.803-.307-.758-.056.032.08.469.206.687m-.46-.792c.06.089.1.11.112.057.024-.16-.254-.778-.333-.731-.062.034.079.464.222.674m-.502-.77c.062.087.108.107.12.055.037-.158-.26-.76-.35-.714-.074.036.074.453.23.659m-.147-.773c.059.075.095.099.104.062.03-.12-.307-.764-.373-.715-.053.037.12.453.27.653m-.395.026c.074.091.128.104.137.036.018-.193-.304-.76-.383-.674-.06.06.091.45.246.638m-.142-.76c.07.08.115.1.117.046.014-.158-.319-.733-.398-.682-.057.038.12.44.281.636m-.441.03c.09.096.15.101.15.013 0-.22-.317-.718-.403-.636-.066.063.093.441.253.622m-.135-.742c.077.086.13.095.13.026-.008-.186-.362-.728-.422-.642-.053.064.13.437.292.616m-.475.042c.095.09.157.096.157.01.007-.215-.327-.703-.425-.618-.069.062.093.433.268.608m-.134-.728c.085.082.141.09.141.024 0-.195-.371-.712-.444-.62-.057.062.13.425.303.596m-.51.05c.109.095.177.09.169-.015-.019-.235-.376-.68-.455-.564-.055.082.108.418.286.58m-.134-.71c.097.085.158.086.152.002-.018-.208-.381-.669-.465-.581-.057.063.13.415.313.578m-.547.058c.114.091.19.084.181-.015-.014-.231-.389-.662-.474-.547-.062.08.104.403.293.562m2.165 1.247c.057.073.093.094.096.057.01-.12-.367-.737-.418-.685-.045.04.16.44.322.628m-.573-.698c.062.07.1.088.108.052.023-.133-.368-.722-.441-.663-.047.039.16.429.333.61m-.293-.729c.057.058.094.08.099.058.016-.09-.395-.688-.461-.665-.049.015.19.418.362.607m-.316.061c.075.076.122.088.122.036.007-.152-.383-.683-.457-.629-.057.04.159.42.335.593m-.278-.715c.062.068.105.082.105.047.007-.122-.433-.688-.485-.63-.034.042.204.415.38.583M89.61 20.366c.12.282.48.319.591.063.132-.286-.168-.622-.447-.511-.161.064-.223.267-.144.448m.893-.252c.135.277.502.303.604.04.11-.287-.202-.615-.471-.493-.16.069-.217.274-.133.452m-1.217-.73c.118.278.465.318.572.067.112-.28-.18-.614-.442-.506-.15.062-.213.258-.13.439m.848-.24c.136.274.485.3.577.043.101-.28-.208-.604-.463-.487-.15.067-.203.265-.114.443m3.421 3.285c.16.294.575.265.654-.045.076-.302-.26-.58-.53-.437-.165.087-.22.303-.124.482m-1.367-.647c.154.297.568.283.652-.02.085-.316-.274-.605-.546-.436-.141.09-.187.292-.106.456m.934-.336c.155.272.533.268.623-.008.103-.304-.24-.614-.512-.467-.159.083-.21.298-.111.475m-1.328-.644c.14.274.515.288.615.017.104-.298-.223-.618-.496-.48-.161.075-.218.284-.12.463m.891-.323c.156.27.522.27.603 0 .09-.299-.247-.607-.508-.467-.151.083-.192.29-.095.467m-1.3-.646c.145.27.508.285.592.02.098-.287-.228-.606-.488-.474-.153.073-.194.277-.103.454m.852-.31c.156.27.512.273.578.008.077-.292-.255-.598-.5-.462-.145.08-.18.282-.078.454m-1.269-.648c.15.27.5.29.569.03.085-.282-.236-.598-.483-.474-.138.072-.18.272-.086.444m.81-.291c.156.264.502.273.558.013.065-.283-.268-.587-.5-.457-.135.073-.16.271-.059.444m-3.637.009c.107.28.433.335.54.09.109-.259-.16-.609-.403-.514-.145.052-.209.242-.137.424m-1.048-.809c.091.266.369.346.492.141.134-.24-.082-.61-.328-.56-.146.032-.229.228-.164.42m.765-.16c.103.276.415.333.51.095.099-.257-.165-.598-.393-.51-.134.05-.188.24-.117.415m1.09.77c.12.277.453.318.546.07.098-.262-.19-.6-.431-.5-.142.059-.194.25-.114.43m.804-.226c.134.27.466.303.55.052.082-.267-.223-.592-.46-.485-.14.063-.178.256-.09.433m-1.137-.731c.119.273.434.32.514.077.092-.257-.197-.589-.415-.494-.131.055-.176.243-.099.417m.754-.21c.135.264.453.302.521.056.078-.271-.256-.604-.468-.468-.112.073-.136.252-.053.412m-1.092-.727c.108.254.39.315.48.108.103-.254-.174-.612-.401-.516-.12.051-.159.238-.079.408m.703-.201c.127.25.406.303.481.09.095-.252-.206-.602-.424-.497-.12.056-.147.242-.057.407m-.397-.904c.124.239.397.297.456.092.077-.235-.221-.587-.413-.49-.116.054-.13.232-.043.398m1.956 2.521c.147.262.475.287.543.034.068-.267-.25-.583-.476-.469-.132.068-.162.262-.067.435m.762-.278c.16.262.484.273.531.022.057-.291-.305-.599-.514-.438-.105.08-.116.263-.017.416m-1.197-.648c.144.246.438.288.51.067.092-.265-.232-.607-.46-.49-.12.063-.144.252-.05.423m.715-.26c.154.244.448.276.51.056.067-.268-.274-.601-.484-.476-.117.068-.127.258-.026.42m-1.595-1.539c.138.233.408.281.454.078.06-.24-.256-.577-.44-.475-.109.055-.113.235-.014.397m.615-.223c.156.232.42.273.455.064.039-.238-.29-.566-.465-.46-.105.06-.097.238.01.396m-.506-.86c.146.214.382.266.426.094.052-.225-.286-.58-.456-.475-.091.057-.078.225.03.381m7.472 10.436c.17.288.592.222.662-.105.075-.316-.27-.576-.543-.405a.373.373 0 0 0-.119.51m-1.42-.541c.164.29.594.24.672-.08.078-.31-.262-.579-.54-.422a.371.371 0 0 0-.131.502m.962-.434c.172.286.584.225.65-.098.065-.314-.282-.572-.545-.405a.37.37 0 0 0-.105.503m-1.4-.548c.168.291.582.244.654-.073.068-.306-.273-.575-.54-.421-.167.097-.216.318-.114.494m.93-.42c.162.268.545.231.625-.055.089-.318-.27-.61-.538-.438-.156.099-.195.32-.086.494m-1.384-.555c.16.272.542.25.63-.03.091-.312-.257-.613-.53-.454-.159.091-.204.309-.1.484m.894-.402c.169.265.54.236.613-.047.075-.314-.28-.605-.54-.44-.15.097-.182.315-.073.487m-1.363-.567c.163.268.532.252.61-.025.082-.306-.266-.604-.525-.452-.154.09-.19.304-.085.477m.86-.386c.17.263.532.238.592-.04.064-.307-.291-.596-.536-.436-.146.093-.166.304-.056.476m-1.338-.564c.166.265.526.254.592-.016.068-.301-.278-.599-.526-.45-.141.086-.171.295-.066.466m.822-.37c.175.261.525.24.576-.033.051-.3-.304-.586-.536-.433-.136.091-.155.3-.04.467m-1.309-.57c.168.263.512.258.568-.009.058-.29-.287-.587-.522-.447-.133.083-.156.289-.046.455m.78-.349c.179.256.515.238.556-.028.04-.29-.314-.576-.535-.427-.128.087-.14.29-.021.455m-1.282-.572c.172.258.502.258.545-.003.052-.3-.326-.597-.54-.426-.103.088-.109.276-.006.429m.738-.334c.182.252.505.242.537-.017.03-.3-.355-.587-.553-.408-.1.088-.093.275.016.425m4.45 6.14c.17.266.55.212.635-.088.087-.31-.237-.592-.505-.445-.186.098-.243.348-.13.534m.902-.498a.33.33 0 0 0 .61-.105c.075-.31-.253-.584-.513-.432-.172.106-.213.356-.097.537m-1.386-.465c.167.264.547.217.62-.079.076-.304-.249-.584-.51-.443-.177.095-.226.34-.11.522m.87-.48c.181.258.546.2.604-.096.056-.307-.271-.58-.522-.43-.166.102-.206.348-.081.525m-1.375-.468c.175.262.546.216.609-.072.07-.324-.292-.604-.546-.424-.147.103-.174.326-.063.496m.843-.465c.182.255.54.201.586-.09.054-.318-.31-.592-.55-.407-.14.107-.153.33-.036.497m-1.364-.478c.178.262.541.22.593-.064.06-.314-.3-.593-.545-.422-.138.1-.161.319-.048.486m.813-.446c.185.254.532.205.573-.081.044-.315-.326-.585-.551-.403-.135.103-.142.32-.023.484m-1.351-.488c.181.256.53.223.58-.059.046-.306-.314-.581-.548-.417-.134.097-.149.31-.032.476m.778-.43c.192.25.53.208.56-.07.034-.31-.334-.575-.556-.405-.125.1-.125.315-.007.476m-1.329-.486c.186.253.527.222.559-.052.038-.299-.327-.576-.545-.415-.126.094-.133.304-.014.467m.744-.412c.194.249.52.21.543-.063.021-.3-.346-.566-.555-.401-.12.098-.116.306.012.464m-1.315-.491c.191.25.524.224.546-.04.025-.293-.337-.566-.546-.414-.122.09-.12.293 0 .454m.71-.39c.19.23.494.216.524-.025.046-.293-.344-.592-.55-.427-.113.09-.104.293.025.452m-1.287-.493c.184.23.483.23.52-.007.048-.284-.334-.59-.538-.436-.118.084-.106.282.018.443m.672-.374c.193.226.485.217.509-.017.028-.285-.36-.578-.553-.42-.107.087-.087.284.044.437m4.829 5.844c.179.258.537.183.59-.12.055-.31-.272-.577-.517-.416-.161.11-.197.36-.073.536m.806-.538c.182.248.525.165.565-.138.035-.312-.293-.566-.521-.398-.153.11-.172.36-.044.536m-1.347-.39c.183.254.534.185.579-.109.046-.31-.286-.57-.521-.414-.16.103-.183.349-.058.524m.777-.524c.19.247.53.171.556-.127.03-.305-.303-.558-.526-.397-.147.107-.162.352-.03.524m-1.339-.392c.19.249.535.187.567-.105.037-.322-.326-.584-.553-.391-.127.11-.133.334-.014.496m.75-.505c.186.231.5.18.542-.088.052-.31-.301-.592-.529-.425-.141.103-.15.344-.013.513m-1.333-.4c.195.245.534.187.556-.096.027-.316-.343-.574-.556-.39-.125.108-.123.324 0 .485m.722-.486c.193.228.503.184.533-.077.041-.304-.316-.585-.534-.425-.138.1-.138.334 0 .502m-1.325-.411c.188.231.499.2.541-.056.042-.295-.31-.583-.539-.436-.138.093-.138.322 0 .492m.693-.465c.197.223.5.183.52-.072.03-.296-.328-.574-.541-.42-.13.097-.12.325.021.492m-1.313-.413c.193.227.501.2.526-.047.038-.305-.358-.593-.556-.414-.114.099-.1.306.03.461m.665-.445c.2.22.497.184.509-.065.018-.299-.382-.577-.57-.395-.1.104-.073.306.061.46m-1.298-.416c.196.223.494.2.51-.041.024-.292-.37-.578-.562-.407-.107.093-.085.295.052.448m.63-.423c.205.215.494.183.5-.055.007-.293-.397-.568-.575-.393-.097.098-.06.298.075.447m-1.281-.42c.2.22.488.2.499-.035.01-.282-.388-.564-.57-.4-.095.088-.065.285.07.434m5.75 5.13c.18.233.49.167.538-.114.054-.326-.288-.604-.52-.42-.14.115-.149.366-.017.535m.704-.579c.18.227.48.152.508-.13.038-.324-.305-.592-.514-.403-.131.12-.128.367.007.533m-1.293-.313c.185.228.492.166.529-.108.043-.319-.308-.593-.526-.417-.136.11-.143.357 0 .525m.679-.56c.188.223.482.15.504-.122.027-.319-.325-.586-.525-.401-.13.115-.12.36.02.523m-1.294-.321c.19.226.496.17.52-.099.033-.31-.319-.584-.531-.413-.136.11-.129.346.01.512m.656-.538c.198.218.484.151.499-.114.02-.312-.338-.576-.538-.399-.12.112-.104.349.039.513m-1.29-.329c.196.224.493.17.51-.09.024-.303-.335-.574-.538-.41-.13.105-.12.337.027.5m.63-.52c.207.218.489.157.494-.104.008-.304-.358-.563-.548-.392-.12.105-.09.338.054.497m-1.291-.336c.205.217.49.168.502-.085.013-.295-.353-.562-.549-.403-.12.097-.099.325.047.488m.606-.502c.206.216.486.155.481-.095 0-.295-.37-.549-.55-.386-.116.1-.082.327.07.481m-1.284-.334c.203.214.49.171.49-.077 0-.299-.4-.567-.573-.379-.1.103-.059.309.083.456m.581-.478c.21.207.486.159.471-.09-.017-.298-.422-.552-.58-.36-.087.106-.041.307.109.45m-1.28-.341c.211.21.491.171.481-.068-.011-.291-.417-.555-.578-.372-.09.098-.044.296.098.44m.554-.454c.204.193.463.164.463-.052 0-.275-.399-.558-.57-.4-.104.09-.054.301.107.452m-1.269-.346c.205.195.462.177.47-.032.01-.266-.391-.555-.567-.41-.105.085-.06.291.097.442m-4.433 1.336c.165.243.468.26.521.033.068-.273-.287-.6-.503-.466-.124.076-.126.27-.018.433m.699-.313c.171.234.471.243.51.018.048-.276-.316-.591-.521-.45-.112.079-.11.271.01.432m-1.219-.577c.165.238.45.259.497.038.052-.265-.3-.586-.502-.456-.111.068-.109.256.008.418m.653-.295c.177.23.463.246.492.026.037-.267-.329-.577-.521-.444-.104.073-.093.263.029.418m1.231.54c.183.229.475.23.502.003.03-.275-.343-.577-.537-.432-.107.08-.093.274.035.428m9.043 4.057c.191.22.472.138.489-.144.017-.323-.328-.583-.52-.387-.12.122-.103.37.031.531m.595-.612c.184.205.438.14.46-.12.025-.314-.302-.597-.497-.429-.133.115-.113.384.037.549m-1.229-.242c.196.218.477.138.482-.134.008-.32-.345-.573-.53-.386-.117.117-.095.36.048.52m.574-.592c.194.202.44.138.46-.115.015-.305-.323-.583-.512-.42-.127.11-.104.371.053.535m-1.233-.248c.199.213.477.14.472-.127 0-.309-.36-.562-.54-.382-.113.116-.082.352.068.509m.55-.571c.2.196.449.137.453-.108.01-.296-.338-.572-.52-.414-.122.106-.09.36.067.522m-1.237-.253c.208.207.481.14.472-.121-.015-.3-.38-.548-.55-.373-.11.11-.072.34.077.494m.538-.549c.202.193.447.137.447-.102 0-.302-.391-.573-.553-.388-.099.113-.052.342.106.49m-1.246-.266c.2.195.452.151.458-.08.007-.295-.385-.576-.556-.397-.11.103-.06.328.098.477m.51-.525c.207.19.45.136.444-.092-.01-.294-.409-.563-.563-.383-.1.107-.04.328.119.475m-1.241-.265c.206.192.457.152.45-.072 0-.286-.4-.56-.567-.39-.098.1-.045.315.117.462m.49-.502c.21.184.45.138.436-.086-.022-.283-.425-.545-.574-.374-.091.102-.027.317.137.46m4.063 3.39c.188.202.427.129.435-.13.01-.314-.322-.588-.498-.415-.119.12-.09.382.063.546m.486-.635c.189.193.412.115.41-.145-.008-.309-.341-.574-.502-.396-.104.12-.06.383.092.54m-1.155-.178c.194.195.43.127.43-.125 0-.308-.341-.575-.512-.406-.115.111-.077.37.082.531m.471-.616c.192.19.417.114.403-.136-.012-.302-.358-.564-.512-.39-.109.114-.052.37.11.526m-1.173-.183c.202.192.44.127.43-.117-.008-.298-.357-.562-.523-.4-.115.11-.07.361.093.517m.455-.594c.201.186.425.113.404-.13-.024-.293-.374-.55-.526-.383-.104.11-.044.36.122.513m-1.176-.187c.203.187.438.126.426-.111-.02-.304-.41-.563-.558-.372-.087.114-.025.339.132.483m.435-.57c.199.171.41.121.405-.094-.007-.287-.389-.571-.545-.404-.098.107-.032.347.14.499m-1.19-.198c.21.18.446.124.423-.104-.03-.292-.424-.549-.57-.364-.084.107-.015.328.146.468m.422-.55c.199.17.412.123.4-.085-.015-.278-.404-.554-.559-.395-.093.1-.022.338.159.48m-.793-.718c.21.164.419.12.404-.08-.028-.267-.43-.536-.573-.383-.095.098-.01.322.169.463m-1.195-.197c.218.171.447.123.412-.089-.05-.273-.46-.516-.591-.348-.077.099.008.304.18.437m.38-.5c.21.16.42.12.398-.073-.034-.273-.477-.536-.597-.356-.07.098.02.301.198.43m-.84-.677c.223.153.43.12.397-.067-.043-.26-.491-.514-.607-.343-.065.094.035.284.21.41m5.787 4.521c.182.178.383.115.383-.121 0-.3-.319-.588-.484-.436-.116.11-.065.391.101.557m.374-.654c.183.174.37.104.352-.132-.017-.298-.338-.577-.486-.421-.097.114-.038.393.134.553m-1.07-.121c.183.175.386.113.376-.114-.007-.292-.34-.573-.494-.424-.119.105-.057.378.117.538m.357-.632c.19.168.374.104.356-.126-.027-.29-.356-.561-.497-.41-.107.11-.034.38.141.536m-1.085-.122c.192.17.392.113.381-.111-.018-.295-.39-.574-.531-.397-.093.115-.023.36.15.508m.343-.612c.199.166.385.102.361-.12-.035-.294-.407-.56-.534-.382-.08.115 0 .36.173.502m-1.104-.123c.198.164.402.11.381-.106-.021-.286-.4-.556-.544-.386-.088.109-.008.347.163.492m.336-.589c.202.158.388.099.361-.114-.045-.285-.424-.545-.549-.37-.082.109.013.345.188.484m-1.121-.133c.206.162.406.112.381-.097-.033-.276-.428-.54-.56-.377-.089.102 0 .335.179.474m.319-.564c.207.153.398.099.362-.107-.048-.276-.447-.527-.567-.362-.077.106.022.335.205.47m-1.127-.131c.21.155.413.109.38-.09-.041-.266-.441-.523-.576-.367-.084.1.012.32.196.457m-1.687-1.324c.221.15.423.109.38-.074-.06-.26-.51-.5-.61-.327-.06.096.048.284.23.4m6.148 3.69c.178.156.34.102.333-.108-.014-.3-.352-.607-.488-.44-.09.117-.011.393.155.548m.257-.667c.16.141.312.098.309-.087-.01-.28-.345-.611-.482-.47-.097.104-.01.394.173.557m-.98-.064c.184.152.35.1.333-.104-.015-.29-.37-.588-.501-.427-.09.111 0 .379.168.53m.252-.647c.177.148.332.093.304-.114-.035-.285-.394-.571-.506-.408-.077.114.022.377.202.522m-1.001-.065c.183.15.355.098.338-.097-.025-.28-.389-.57-.524-.414-.09.107 0 .365.186.51m.24-.622c.182.144.34.089.31-.108-.042-.276-.412-.556-.523-.4-.078.109.03.365.212.508m-1.019-.066c.191.144.362.095.337-.095-.026-.27-.405-.55-.536-.401-.093.103.011.354.2.496m.228-.602c.192.14.351.086.319-.1-.052-.27-.43-.538-.541-.386-.082.105.035.35.222.486m-1.042-.071c.197.139.368.094.345-.088-.036-.261-.432-.53-.56-.388-.087.096.019.338.215.476m-.833-.645c.204.135.379.094.347-.083-.05-.265-.478-.529-.591-.358-.06.104.057.317.244.441m-5.39.183c.222.175.458.152.421-.039-.042-.249-.504-.503-.612-.34-.056.087.03.256.192.38m.388-.4c.218.154.44.138.417-.029-.032-.243-.488-.507-.616-.362-.071.08.022.263.199.39m1.556-.2c.224.146.43.115.39-.06-.048-.25-.509-.495-.618-.334-.062.09.047.273.228.393m-1.2-.209c.228.15.438.128.405-.042-.047-.24-.51-.49-.624-.342-.063.083.042.262.218.384m8.998 2.732c.159.139.295.093.278-.093-.028-.28-.366-.6-.482-.456-.085.108.023.395.204.549m.129-.674c.151.125.269.092.253-.072-.023-.264-.353-.604-.474-.484-.09.092.031.4.221.556m-.87-.014c.168.133.308.09.287-.093-.03-.27-.381-.578-.5-.438-.087.102.023.38.214.53m.126-.652c.157.122.28.086.266-.071-.027-.27-.4-.604-.506-.454-.071.106.056.38.24.525m-.892-.013c.172.128.314.086.291-.09-.035-.26-.398-.559-.52-.424-.088.101.03.368.23.514m.124-.632c.169.126.303.078.267-.095-.056-.262-.422-.547-.522-.41-.077.104.06.366.255.505m-.919-.011c.178.123.323.084.296-.084-.042-.268-.444-.56-.546-.396-.068.105.057.35.25.48m.115-.607c.18.12.316.076.275-.091-.062-.266-.468-.546-.548-.379-.054.108.085.346.273.47m-.946-.017c.185.118.33.08.299-.08-.046-.257-.461-.536-.56-.378-.07.1.065.333.26.458m.113-.58c.187.111.321.069.28-.09-.065-.254-.482-.52-.563-.361-.054.103.087.33.283.451m-.963-.013c.19.114.338.079.31-.077-.054-.245-.485-.512-.585-.363-.068.099.073.318.275.44m.106-.556c.194.109.332.066.29-.086-.072-.242-.498-.498-.582-.345-.055.099.093.319.292.43m4.077 2.423c.14.113.24.088.229-.052-.02-.26-.376-.627-.483-.497-.076.095.063.397.254.549m0-.676c.14.11.234.083.207-.057-.04-.26-.4-.614-.487-.482-.063.096.095.392.28.539m-.744.03c.15.115.265.08.235-.077-.044-.253-.397-.572-.5-.452-.078.089.066.385.265.53m0-.655c.148.104.243.08.218-.058-.04-.25-.417-.59-.505-.464-.068.096.09.382.287.522m-.78.033c.166.112.279.075.25-.074-.054-.26-.444-.572-.53-.42-.06.1.086.36.28.494m.008-.63c.151.098.252.072.23-.059-.044-.24-.434-.567-.53-.443-.067.09.096.366.3.503m-.809.035c.168.105.29.072.253-.076-.047-.25-.452-.545-.545-.403-.063.099.093.349.292.479m.007-.609c.154.096.261.07.238-.056-.042-.232-.449-.544-.547-.423-.073.086.098.352.31.48m-.847.033c.178.102.299.068.268-.072-.055-.24-.474-.522-.566-.382-.065.093.092.332.298.454m.012-.583c.169.098.28.058.238-.077-.072-.238-.493-.508-.568-.37-.05.098.119.332.33.447m-.867.04c.178.096.304.065.273-.069-.059-.229-.49-.496-.583-.364-.067.091.094.32.31.433m0-.555c.184.091.297.055.256-.08-.078-.222-.509-.48-.587-.345-.05.093.126.316.331.425m-.88.043c.192.095.322.05.268-.09-.088-.231-.532-.458-.602-.31-.044.094.125.297.333.4m0-.533c.182.084.303.05.26-.074-.085-.233-.554-.473-.609-.313-.032.095.142.29.35.387m4.842 2.675c.124.097.206.079.187-.038-.038-.24-.404-.61-.49-.506-.068.082.104.392.303.544m-.746-.602c.137.094.22.076.202-.042-.035-.23-.417-.587-.508-.48-.075.08.103.376.306.522m-.768-.578c.14.09.228.074.208-.04-.042-.237-.455-.585-.537-.45-.052.093.13.363.329.49m-.801-.547c.153.09.252.063.214-.063-.065-.229-.47-.53-.55-.405-.056.088.126.346.336.468m-.834-.523c.154.085.258.057.224-.063-.063-.222-.483-.504-.569-.385-.062.087.13.33.345.448m-.11-.577c.148.072.234.054.21-.05-.06-.218-.507-.519-.582-.39-.044.088.16.331.373.44m-.75.086c.166.078.27.05.234-.064-.066-.226-.526-.497-.588-.35-.041.094.144.309.355.414m-.102-.553c.161.076.256.045.21-.068-.087-.223-.546-.483-.588-.335-.031.096.166.305.378.403m-.78.092c.183.078.293.04.237-.085-.09-.209-.538-.437-.601-.307-.045.09.146.293.364.392m-.094-.527c.163.07.26.038.22-.07-.089-.21-.563-.45-.608-.308-.033.088.169.286.388.378m4.67 2.395c.1.075.164.073.146-.006-.032-.2-.436-.614-.51-.528-.056.07.158.386.364.534m-.26-.66c.093.069.145.072.133.01-.03-.184-.47-.624-.528-.53-.038.066.2.384.394.52m-.725-.538c.1.064.16.067.149.004-.028-.18-.482-.599-.546-.503-.046.067.193.367.397.499m-.509.106c.123.075.193.06.169-.03-.054-.207-.485-.56-.546-.45-.048.08.169.356.377.48m-.243-.615c.11.064.177.057.156-.015-.047-.188-.486-.552-.556-.464-.053.067.189.354.4.479m-.547.114c.125.072.204.055.182-.031-.052-.2-.494-.536-.566-.426-.052.077.166.34.384.457m-.233-.591c.117.06.184.053.167-.021-.043-.19-.527-.543-.577-.428-.037.08.195.338.41.449m-.587.117c.14.071.223.047.185-.055-.081-.214-.528-.505-.581-.372-.033.089.182.324.396.427m-.227-.566c.131.06.204.042.172-.042-.066-.192-.526-.493-.587-.386-.037.08.197.323.415.427m-.621.125c.15.066.235.043.195-.055-.073-.206-.534-.475-.592-.348-.04.085.178.309.397.403m7.87 6.31-.253-.438c.108.18.207.352.253.438m-1.394-2.199c.019.024.04.049.053.073l-.47-.655c.143.191.279.388.417.582m-1.202-1.249c.057.057.095.075.095.053 0-.092-.454-.655-.506-.63-.041.023.236.405.411.577m-.618-.602c.068.057.104.071.098.036-.018-.131-.484-.656-.52-.591-.026.045.245.397.422.555m-.651-.576c.068.055.112.067.107.031-.013-.131-.486-.636-.533-.566-.035.045.235.385.426.535m1.15.702c.076.088.149.18.223.269zm-2.6-2.71c.015.017.034.032.05.045l-.492-.436-.052-.044c.139.12.398.351.495.435m-1.252-1.063.012.01-.507-.394c.158.12.387.298.495.384m2.035 2.541c.085.058.128.065.119.017-.032-.149-.488-.595-.545-.533-.04.048.23.378.426.516m-.402-.638c.077.05.115.06.108.023-.03-.13-.532-.599-.564-.529-.028.05.263.37.456.506m-.31.122c.087.054.136.058.13.013-.024-.149-.49-.574-.554-.508-.056.05.212.36.424.495m-.39-.621c.081.049.123.057.117.022-.019-.131-.529-.576-.575-.502-.033.05.254.35.458.48m-.35.135c.099.057.157.054.134-.006-.045-.172-.52-.554-.565-.46-.035.068.222.348.432.466m-.376-.598c.09.048.136.05.12.002-.035-.141-.527-.531-.583-.464-.038.055.25.344.463.462m-.392.143c.112.06.167.047.142-.024-.07-.18-.522-.508-.582-.417-.037.066.221.332.44.44M91.69 4.16c.127-.021.182-.062.136-.101-.117-.091-.594-.063-.589.039.01.066.27.09.453.062m3.353-.704c.042.008.051.004.054.004v-.004c-.049-.055-.571-.223-.621-.204 0 0-.007.003-.007.007.047.045.424.17.571.198m-.606-.11c.039.003.075.005.065-.013-.055-.067-.598-.215-.616-.171-.015.042.38.164.551.184m-.663-.266c.045.005.05 0 .05-.002-.02-.049-.583-.198-.613-.164-.027.034.389.15.563.166m-.7-.238c.04.003.042 0 .044-.002-.022-.043-.577-.176-.607-.147.02.046.434.138.563.15m.668.66c.077 0 .106-.018.071-.048-.103-.095-.583-.177-.583-.1 0 .057.319.148.512.147m-.68-.001c.086-.009.117-.032.069-.064-.119-.096-.588-.14-.57-.057.014.063.307.132.5.12m-.985.338c.12-.017.157-.056.104-.094-.142-.089-.569-.078-.566.018 0 .068.28.104.462.076m-.427-.217c.099-.02.136-.054.092-.088-.124-.09-.571-.073-.556.023.017.069.293.097.464.065m-.33.321c.12-.024.169-.065.111-.099-.122-.088-.583-.045-.56.052.016.066.275.082.448.047m-.389-.198c.112-.028.153-.069.099-.102-.14-.083-.575-.026-.54.07.02.063.271.071.441.032m2.88-.47c.056.003.078-.005.062-.026-.075-.08-.597-.195-.597-.13 0 .048.352.15.535.156m-.63-.248c.032 0 .068-.002.054-.021-.054-.067-.584-.178-.594-.124-.011.048.373.143.54.145m0 .222c.062-.001.086-.017.062-.04-.085-.082-.571-.163-.58-.097-.012.058.338.142.518.137m-.595-.233c.055-.003.077-.016.057-.034-.075-.081-.58-.156-.574-.087 0 .06.354.13.517.121m-.052.248c.075-.009.099-.028.065-.057-.1-.088-.569-.132-.564-.052 0 .065.325.125.499.11m-.556-.219c.075-.01.092-.03.052-.055-.115-.084-.567-.116-.546-.035.015.06.335.11.494.09m-.104.276c.088-.016.115-.043.074-.074-.126-.092-.57-.098-.55-.007.013.066.31.106.476.08m-.509-.202c.076-.015.098-.044.056-.073-.125-.08-.54-.078-.532 0 0 .067.31.106.476.073m-.167.302c.098-.022.132-.058.08-.089-.137-.086-.565-.053-.531.039.023.065.293.085.451.05m-.464-.185c.087-.023.11-.06.053-.089-.137-.075-.526-.042-.51.045.017.068.297.087.457.044m-.212.324c.107-.027.14-.07.081-.1-.138-.073-.536-.013-.519.075.01.067.272.073.438.025m-.428-.167c.101-.031.12-.074.06-.103-.142-.068-.52.003-.49.091.019.066.276.063.43.012m-.643.203c.104-.04.13-.084.077-.113-.137-.066-.529.041-.49.13.032.06.264.04.413-.017m3.072-.796c.033 0 .063-.001.045-.02-.075-.06-.59-.154-.59-.105.01.042.375.128.545.125m-.679-.2c.036-.001.036-.007.042-.011-.007-.046-.548-.145-.583-.105-.034.034.37.12.541.116m.126.204c.051-.005.065-.018.043-.035-.087-.072-.559-.132-.56-.075-.009.055.36.123.517.11m-.634-.19c.024-.003.059-.01.034-.03-.079-.069-.573-.124-.556-.061.007.052.373.109.522.091m.069.234c.058-.008.075-.027.047-.049-.106-.08-.55-.108-.545-.034.011.061.342.11.498.083m-.59-.178c.051-.01.062-.029.03-.047-.121-.075-.557-.09-.527-.02.022.061.35.097.496.067m.02.266c.062-.016.084-.04.045-.065-.112-.081-.545-.072-.52.008.016.066.318.093.475.057m-.552-.163c.063-.02.074-.044.034-.066-.126-.073-.517-.059-.506.016.009.067.326.092.472.05m-.039.294c.082-.026.097-.061.039-.086-.146-.073-.521-.025-.488.057.03.067.3.075.45.029m-.505-.152c.069-.023.08-.054.035-.08-.132-.07-.502-.025-.482.059.02.072.302.074.448.02m-.087.327c.09-.035.102-.078.037-.103-.147-.062-.506.018-.463.103.035.065.28.056.426 0m-.461-.137c.085-.037.09-.079.021-.104-.152-.051-.472.025-.44.109.027.07.28.056.419-.005m-.139.355c.09-.042.115-.088.056-.112-.136-.057-.488.045-.46.133.02.067.254.044.404-.02m-.411-.125c.083-.043.1-.089.037-.113-.14-.052-.471.062-.436.149.03.065.265.034.399-.036m2.507-.914c.028-.002.028-.007.028-.01-.026-.043-.562-.124-.578-.088-.014.032.396.109.55.098m-.722-.154c.022-.002.028-.002.028-.007-.031-.042-.56-.11-.58-.076.02.037.432.091.552.083m.25.18c.028-.003.052-.013.028-.029-.09-.06-.549-.103-.552-.052 0 .047.378.102.524.08M90 2.3c.037-.008.03-.017.022-.023-.08-.056-.564-.09-.546-.04.014.043.393.09.525.063m.195.214c.043-.01.052-.026.024-.042-.1-.067-.534-.08-.52-.016.016.06.362.091.496.058m-.63-.135c.041-.012.044-.027.01-.043-.11-.059-.511-.064-.507-.008.008.058.36.093.497.05m.146.248c.057-.02.059-.044.014-.064-.141-.07-.509-.045-.484.03.025.065.334.08.47.034m-.586-.125c.05-.02.05-.044 0-.064-.144-.059-.482-.03-.462.036.016.07.342.077.462.028m.091.28c.058-.025.066-.057.013-.078-.145-.064-.494-.01-.454.07.032.069.31.066.441.008m-.538-.114c.057-.028.052-.063-.016-.084-.168-.05-.469.015-.417.09.05.065.318.051.433-.006m.036.316c.072-.04.072-.081 0-.103-.16-.047-.453.039-.412.12.038.069.286.047.412-.017m-.488-.105c.068-.038.062-.08-.013-.099-.17-.04-.444.05-.387.128.045.064.292.038.4-.029m-.016.348c.084-.048.084-.098 0-.115-.169-.04-.435.086-.387.16.04.063.264.029.385-.045m-.437-.094c.074-.052.067-.097-.017-.113-.177-.034-.412.099-.354.169.046.06.261.017.371-.056m1.873-1.003.022-.003c-.01-.034-.544-.09-.57-.061.022.036.453.077.548.064m-.75-.103.01-.004V2.02c-.05-.031-.526-.067-.564-.045v.002c.063.036.474.06.554.049m.377.146c.017-.005.024-.011.012-.02-.063-.046-.544-.073-.538-.029.007.042.405.08.526.05m-.711-.098c.02-.005.02-.01.007-.018-.078-.044-.525-.06-.525-.02 0 .04.418.07.52.038m.322.188c.033-.016.033-.03 0-.044-.126-.053-.513-.047-.49.008.021.052.38.077.49.036m-.654-.096c.024-.01.016-.025-.018-.037-.124-.043-.492-.04-.475.017.012.052.385.072.493.02m.27.222c.037-.017.032-.04-.02-.06-.157-.05-.477-.014-.444.05.036.064.358.064.464.01m-.613-.083c.034-.022.024-.042-.033-.06-.143-.038-.456-.01-.425.055.03.067.368.06.458.005m.215.262c.05-.032.036-.066-.04-.082-.165-.043-.432.02-.39.094.043.068.329.051.43-.012m-.561-.08c.047-.033.018-.067-.072-.08-.176-.029-.404.039-.348.105.057.067.332.041.42-.025m.163.297c.064-.042.04-.086-.055-.099-.17-.023-.39.063-.341.135.047.07.294.038.396-.036m-.51-.071c.056-.046.014-.09-.09-.094-.177-.012-.352.074-.298.14.06.068.303.03.387-.046m.939-.768s0-.002.007-.004c-.021-.026-.518-.048-.559-.032v.003c.047.027.48.048.554.032m-.783-.055h.007v-.004c-.057-.02-.526-.031-.558-.013.021.029.511.03.553.017m.496.111c.013-.006.011-.012-.007-.019-.081-.029-.538-.048-.52-.005.016.04.439.059.524.024m-.731-.052c0-.002 0-.003.007-.008-.014-.038-.51-.043-.53-.004-.02.038.415.05.516.016l.008-.004m.444.15c.02-.013.01-.026-.032-.038-.136-.037-.494-.022-.457.029.035.052.405.058.49.008m-.682-.046c.019-.016-.01-.031-.081-.043-.164-.021-.434 0-.41.044.027.052.42.052.491-.001m.39.19c.036-.026 0-.05-.09-.063-.178-.026-.403.018-.363.07.047.068.375.049.453-.008m-.632-.044c.033-.033-.045-.06-.17-.062-.18-.003-.324.043-.278.084.067.061.391.034.448-.022m.335.234c.047-.043-.012-.078-.132-.083-.17-.006-.326.055-.282.11.054.07.34.04.414-.027m-.578-.043c.047-.055-.08-.085-.216-.07-.144.011-.241.066-.193.11.074.068.35.03.409-.04m.282.274c.05-.053-.01-.095-.129-.093-.169.002-.31.089-.246.149.074.064.306.02.375-.056m-.52-.039c.044-.068-.08-.101-.215-.077-.153.025-.21.102-.153.145.086.062.305.008.367-.068m.22-.7c.01-.01-.01-.016-.048-.022-.135-.016-.463-.01-.475.023.022.05.49.021.523-.002m-.75-.005c-.022-.033-.496-.016-.523.017 0 .02.125.023.245.02.138-.002.267-.021.278-.037m.561.106c.03-.03-.13-.047-.286-.037-.135.008-.22.032-.2.056.048.048.438.035.486-.019m-.699-.002c.023-.05-.336-.04-.454-.002-.036.01-.043.027-.021.037.098.044.452.008.475-.035m.51.15c.037-.05-.17-.067-.326-.043-.106.019-.157.052-.117.079.09.059.4.023.442-.036m-.643-.002c.022-.058-.3-.064-.42-.008-.044.02-.05.046-.007.06.118.047.4.002.426-.053m.452.197c.041-.068-.166-.088-.31-.047-.104.026-.137.073-.08.107.1.054.352.006.39-.06m-.592-.004c.024-.069-.246-.083-.371-.017-.063.032-.06.07 0 .093.125.043.35-.01.371-.076m.404.24c.041-.075-.13-.1-.264-.059-.124.037-.145.1-.085.138.098.058.308-.002.348-.078m-.538 0c.024-.084-.197-.107-.326-.034-.082.043-.07.105.018.13.12.034.284-.03.308-.096m-.296-.562c.01-.046-.403-.028-.477.024-.02.012-.008.021.036.033.143.026.438-.018.441-.057m-.708.04c-.014-.044-.459-.006-.486.046-.025.04.257.043.426-.005.057-.02.06-.032.06-.04m.624.106c.009-.063-.375-.048-.445.02-.032.03.037.059.154.06.149 0 .288-.046.291-.08m-.657.038c-.014-.061-.4-.034-.447.037-.034.043.126.066.286.04.098-.016.166-.05.161-.077m.572.155c.009-.075-.29-.075-.392 0-.05.037-.02.077.069.09.14.023.318-.037.323-.09m-.599.034c-.014-.073-.344-.057-.41.023-.04.053.077.094.22.077.106-.014.192-.058.19-.1m.52.2c.007-.083-.244-.091-.346-.012-.065.05-.027.11.083.122.123.014.255-.05.263-.11m-.55.034c-.011-.087-.292-.08-.36.008-.051.06.043.117.172.108.103-.01.193-.066.189-.115m-.609-.361c-.032-.062-.42-.02-.45.048-.024.055.235.071.393.006.046-.018.068-.04.057-.054m-.578.26c-.058-.07-.417-.022-.417.056-.007.086.325.079.407-.012.014-.013.014-.03.01-.045m-1.91-.156c-.074.002-.517.095-.557.122v.001c.07.003.51-.089.567-.121V2.39c-.008 0-.009-.002-.01 0m.328.097c-.09-.029-.512.06-.488.104.025.05.485-.03.504-.088 0-.009-.008-.014-.016-.016m.84-.014c-.076-.053-.467.016-.455.08.013.068.406.025.457-.05.013-.014 0-.024 0-.03m-.659.128c-.096-.047-.485.034-.458.096.037.064.439.006.471-.07 0-.013-.008-.02-.012-.026m.79.041c-.075-.064-.413-.015-.416.064-.007.072.299.085.404-.005.039-.027.022-.048.012-.059m-.606.119c-.09-.063-.433 0-.42.078.017.083.365.06.431-.03.009-.01.02-.03-.011-.048m-1.504-.185c-.09.005-.503.106-.554.136v.003a2.91 2.91 0 0 0 .573-.137c-.007-.005-.007-.005-.02-.002m-.807.212c-.1.01-.518.128-.553.156 0 0 0 .003.007.004.073.006.527-.122.574-.157v-.004c-.007 0-.011-.003-.026.001m1.021-.196c-.095-.009-.516.09-.527.127.025.04.54-.078.543-.12 0-.006-.008-.007-.016-.007m-.761.199c-.125-.002-.542.115-.52.146.025.036.536-.09.547-.138 0-.008-.011-.008-.027-.008m.98-.14c-.108-.026-.506.07-.492.115.02.058.485-.033.512-.099 0-.01-.011-.015-.02-.017m-.705.185c-.125-.017-.524.093-.487.135.035.053.512-.054.514-.118 0-.01-.015-.013-.027-.017m.933-.083c-.109-.04-.48.045-.458.105.03.07.441.007.48-.073.009-.013 0-.025-.022-.032m-.652.173c-.128-.035-.5.064-.458.12.052.066.47-.011.491-.091 0-.016-.01-.025-.033-.03m.894-.025c-.11-.058-.455.017-.42.091.04.084.42.038.446-.053.008-.015-.007-.03-.026-.038m-.602.157c-.123-.048-.447.028-.42.103.03.08.404.038.456-.05.016-.03-.011-.046-.036-.053m.308.174c-.126-.064-.427.005-.39.087.043.093.395.073.43-.023.012-.032-.021-.054-.04-.064m-2.985.061c-.124.023-.508.155-.533.19.032.027.533-.136.573-.186v-.005a.103.103 0 0 0-.037.001m1.081-.276c-.12.004-.512.121-.512.162.035.04.554-.107.552-.154 0-.008-.025-.008-.04-.008m-.725.25c-.149.01-.531.146-.504.176.04.037.545-.116.549-.168 0-.008-.015-.01-.045-.008m1.047-.219c-.136-.01-.506.102-.484.146.03.054.514-.062.527-.127 0-.012-.013-.019-.043-.019m-.678.23c-.153-.003-.516.121-.47.16.056.055.533-.076.522-.14 0-.008-.012-.018-.052-.02m1.014-.159c-.144-.024-.488.075-.452.132.037.068.469-.017.496-.096 0-.01 0-.026-.044-.036m-.633.216c-.155-.019-.495.092-.438.145.063.06.495-.037.498-.115 0-.008-.009-.025-.06-.03m.982-.098c-.144-.043-.466.044-.424.115.062.084.465.021.473-.073 0-.01-.007-.03-.049-.042m-.578.197c-.15-.033-.452.054-.416.122.051.08.466.018.475-.076.007-.03-.034-.042-.059-.046m.935-.04c-.14-.054-.425.012-.388.093.04.094.402.076.438-.025.013-.024-.007-.05-.05-.069M63.397 16.065c-.164.231-.27.565-.18.557.124-.01.428-.617.339-.684-.027-.02-.088.029-.16.127m10.98-11.357c-.154.055-.476.221-.496.261.024.021.28-.1.283-.102.186-.09.288-.154.288-.173v-.002c0-.003-.01-.007-.074.016m-2.364 1.264c-.16.09-.481.302-.492.33.044.002.561-.326.581-.366-.008 0-.017 0-.09.036m1.187-.679c-.158.071-.48.26-.496.295.037.014.558-.271.58-.32-.009-.004-.01-.007-.084.025m-.65.418c-.165.079-.478.275-.476.308.042.024.57-.29.57-.338-.006-.002-.01-.008-.093.03m1.172-.625c-.165.064-.475.236-.475.275.017.022.208-.065.298-.112.182-.092.273-.163.27-.179-.007-.012-.058.004-.093.016m-.614.397c-.198.078-.51.278-.46.29.07.021.59-.27.562-.311-.01-.014-.067.008-.102.02M70.21 7.24c-.164.108-.448.335-.466.373.06.028.812-.602.466-.373m1.165-.812c-.164.094-.456.297-.472.34v.004c.078-.015.57-.348.564-.385 0-.002-.01-.006-.095.04m-.598.47c-.169.1-.45.313-.455.354.02.017.191-.092.292-.164.175-.123.277-.213.27-.231 0-.01-.038.003-.107.041m1.165-.753c-.191.092-.488.3-.461.322.038.03.572-.304.567-.353 0-.012-.04-.003-.106.03m.588-.249c-.196.08-.482.276-.447.302.064.04.587-.265.565-.325-.01-.012-.046-.006-.118.023m-.537.425c-.21.089-.485.291-.43.312.075.034.597-.287.556-.34-.01-.013-.058 0-.126.028m4.944-2.73c-.14.027-.516.173-.52.207.036.027.56-.16.569-.208-.007-.002-.01-.007-.05.002m-.714.306c-.145.034-.491.178-.504.218.013.021.205-.043.286-.075.203-.08.277-.13.277-.146 0-.003-.007-.01-.06.002m1.12-.35c-.165.017-.539.164-.489.19.065.035.564-.133.542-.185 0-.005-.013-.01-.054-.005m-.67.286c-.173.023-.513.168-.478.201.054.043.556-.137.546-.195 0-.006-.012-.015-.068-.006m1.087-.292c-.16.002-.5.125-.463.17.046.058.532-.083.526-.151 0-.009-.012-.021-.063-.019m-.624.268c-.177.01-.504.14-.45.182.062.05.527-.094.527-.162 0-.023-.05-.023-.077-.02m1.06-.231c-.164-.013-.482.1-.436.15.057.07.499-.035.504-.119 0-.023-.04-.03-.068-.031m-.581.246c-.166-.002-.466.107-.427.16.048.071.5-.038.512-.124 0-.021-.024-.036-.086-.036m-1.58.313c-.185.03-.517.185-.462.213.071.037.574-.158.542-.21-.007-.005-.014-.014-.08-.003m-.607.321c-.186.036-.497.19-.454.225.057.043.569-.162.55-.221-.009-.02-.063-.012-.096-.003m1.115-.369c-.183.019-.487.15-.442.193.055.058.52-.09.532-.167 0-.019-.027-.03-.09-.026m.525-.002c-.185.001-.475.122-.42.171.069.066.524-.058.516-.14 0-.022-.035-.034-.096-.031m-2.215.705c-.204.044-.502.208-.44.236.082.04.56-.163.548-.233-.007-.016-.046-.018-.108-.003m-.547.35c-.196.05-.476.212-.427.247.062.05.553-.167.553-.242 0-.023-.049-.023-.126-.005m1.132-.44c-.194.031-.471.17-.421.214.056.058.54-.114.54-.194 0-.023-.041-.031-.12-.02m-.506.326c-.205.041-.475.187-.417.227.081.05.567-.135.547-.21 0-.025-.054-.03-.13-.017m-1.772.653c-.205.068-.48.25-.431.278.071.04.566-.217.559-.29 0-.018-.046-.017-.128.012m-.507.398c-.216.08-.48.266-.414.293.085.034.577-.239.554-.307-.01-.02-.058-.014-.14.014m1.145-.575c-.21.06-.479.227-.417.26.082.04.571-.188.553-.26-.007-.022-.054-.022-.136 0m.656-.136c-.211.047-.473.201-.4.236.101.052.586-.15.551-.228-.014-.022-.068-.026-.151-.008M74 5.717c-.212.05-.458.201-.395.244.087.059.583-.153.561-.236-.008-.026-.07-.032-.166-.008m-6.072 3.429c-.164.142-.425.404-.433.437.057-.004.526-.479.53-.51 0 0-.012 0-.097.073m1.12-.994c-.16.123-.442.37-.452.405.052.007.539-.432.549-.468 0-.002-.01-.004-.097.063m-.559.541c-.166.13-.432.385-.427.418.04.018.542-.438.536-.484 0 0-.012-.009-.109.066m1.13-.945c-.167.116-.442.351-.442.388.035.025.553-.388.553-.441-.007-.003-.016-.011-.111.053m-.534.524c-.175.12-.437.36-.421.396.03.013.196-.114.303-.203.148-.127.25-.238.237-.254-.008-.01-.054.012-.119.06m1.128-.886c-.196.118-.472.356-.428.369.067.019.584-.37.547-.417-.007-.01-.049.009-.119.048m-.51.498c-.205.126-.469.37-.407.378.083.014.586-.391.535-.431-.01-.01-.06.009-.128.053m1.781-1.126c-.217.1-.478.31-.41.328.088.023.579-.29.552-.356-.009-.018-.064-.008-.142.028m-5.135 4.08c-.16.16-.397.45-.381.478.052.002.511-.53.491-.568 0 0-.017-.003-.11.09m1.048-1.115c-.164.148-.417.418-.407.448.05.01.532-.482.518-.527 0-.002-.016-.004-.111.079m-.476.588c-.193.173-.432.465-.378.46.08-.01.544-.516.496-.544-.01-.005-.055.025-.118.084m1.059-1.062c-.17.137-.421.397-.401.43.033.006.196-.133.295-.232.147-.138.243-.256.226-.271-.008-.007-.055.02-.12.073m-.458.567c-.197.155-.42.423-.381.439.062.026.545-.461.51-.513-.008-.015-.058.012-.13.074m1.075-1.012c-.208.145-.455.406-.39.409.087.002.576-.441.52-.476-.012-.008-.062.016-.13.067m-.441.545c-.202.145-.428.4-.377.418.073.025.563-.436.52-.49-.013-.012-.067.012-.143.072m1.08-.957c-.201.13-.44.365-.39.388.065.031.572-.388.534-.443-.01-.017-.066.004-.145.055m-.422.52c-.206.138-.431.38-.37.399.089.027.558-.375.528-.455-.008-.024-.068-.004-.158.055m1.093-.897c-.207.117-.445.344-.388.369.084.034.564-.332.543-.414-.009-.024-.066-.007-.155.045m-.407.493c-.212.127-.433.357-.363.38.102.03.576-.351.536-.43-.012-.022-.077-.005-.173.05m-4.143 3.526c-.153.176-.371.481-.35.505.055-.004.488-.569.458-.604 0 0-.016 0-.108.099m.553-.576c-.177.185-.39.477-.351.49.054.018.501-.53.474-.58-.009-.015-.052.02-.123.09m-.385.63c-.18.188-.375.487-.327.499.074.01.505-.55.458-.595-.01-.013-.062.022-.13.096m.967-1.175c-.184.171-.396.455-.348.469.062.016.52-.504.485-.555-.012-.016-.063.018-.137.086m-.376.609c-.186.177-.382.465-.32.477.094.014.532-.519.467-.572-.012-.013-.067.02-.147.095m.991-1.129c-.192.162-.408.436-.347.45.087.023.55-.473.496-.531-.014-.013-.071.017-.149.081m-.358.584c-.198.17-.397.449-.322.461.095.014.526-.466.481-.542-.012-.025-.075.01-.16.081m1.01-1.076c-.199.153-.412.412-.347.43.093.02.543-.42.507-.5-.01-.023-.068.002-.16.07m-.341.562c-.21.16-.402.426-.321.438.105.015.547-.442.49-.516-.018-.023-.082.007-.169.078m1.018-1.02c-.21.142-.419.392-.342.41.104.02.561-.4.514-.475-.015-.023-.081.003-.172.065m-.332.534c-.21.153-.406.408-.315.42.12.017.565-.418.5-.49-.016-.023-.09.005-.185.07m-2.911 2.75c-.177.189-.357.499-.291.504.089.006.478-.53.438-.605-.013-.021-.071.015-.147.1m-.273.643c-.183.198-.341.51-.262.513.109.004.48-.546.417-.62-.016-.02-.08.02-.155.107m.88-1.235c-.187.185-.367.481-.294.486.107.01.507-.505.455-.58-.019-.025-.078.014-.161.094m-.263.623c-.192.19-.352.49-.265.495.123.001.507-.525.436-.598-.023-.022-.09.018-.171.103m.906-1.187c-.2.176-.38.46-.296.467.115.01.529-.484.467-.557-.017-.022-.09.013-.17.09m-.257.598c-.198.185-.36.473-.263.476.127.004.526-.504.447-.573-.028-.019-.096.017-.184.097m.934-1.138c-.208.167-.385.438-.295.445.128.01.551-.457.476-.53-.02-.022-.089.009-.181.085m-.244.573c-.212.176-.372.45-.268.454.144.006.534-.444.467-.537-.022-.036-.1 0-.199.083m.946-1.083c-.215.16-.392.419-.29.426.146.01.576-.432.49-.504-.027-.022-.104.01-.2.078m-.23.549c-.211.156-.369.41-.281.432.13.034.567-.42.496-.512-.028-.032-.11 0-.216.08m4.577-4.572c-.207.08-.46.266-.403.3.07.047.572-.232.557-.318 0-.025-.06-.018-.154.018m-8.228 8.888c-.168.22-.284.549-.184.542.136-.008.447-.597.354-.664-.027-.023-.096.024-.17.122m.754-1.335c-.184.204-.323.522-.227.52.129-.004.477-.565.399-.631-.03-.023-.097.02-.172.111m-.16.652c-.18.213-.294.53-.188.524.146-.006.463-.537.38-.636-.03-.034-.104.009-.191.112m.78-1.288c-.188.197-.327.502-.229.5.139-.001.507-.543.411-.608-.026-.022-.098.019-.181.108m-.148.627c-.191.207-.312.515-.2.51.159-.01.491-.522.402-.618-.03-.032-.113.011-.202.108m.81-1.24c-.203.192-.345.484-.236.48.154-.001.513-.482.436-.577-.026-.032-.109.004-.2.096m-.145.605c-.2.2-.325.496-.2.49.164-.008.511-.502.412-.593-.033-.031-.117.01-.212.103m.842-1.196c-.212.183-.356.465-.238.463.162-.003.539-.464.45-.555-.03-.031-.114.003-.212.092m-.138.58c-.199.181-.328.453-.218.469.152.023.528-.442.451-.56-.03-.044-.125-.007-.233.091m.861-1.141c-.208.166-.355.423-.253.442.152.029.553-.405.487-.52-.028-.044-.123-.012-.234.078m-.131.556c-.206.173-.341.431-.224.448.164.023.554-.423.472-.538-.033-.04-.137-.004-.248.09m.76-.562c-.217.168-.349.415-.23.429.176.02.577-.404.489-.51-.034-.04-.141-.008-.26.081m-2.951 3.031c-.188.21-.287.522-.161.51.172-.014.486-.536.376-.627-.04-.03-.122.014-.215.117m.67-.661c-.201.206-.302.505-.171.494.183-.016.513-.52.395-.605-.04-.032-.127.013-.224.11m-.034.609c-.187.2-.276.492-.148.499.179.013.506-.497.395-.611-.04-.047-.139.001-.247.112m.738-1.248c-.196.188-.305.463-.186.474.172.018.532-.46.434-.575-.036-.043-.139 0-.248.1m-.027.583c-.2.196-.29.473-.159.479.186.011.532-.48.414-.587-.043-.04-.146.002-.255.108m.763-1.193c-.206.178-.318.441-.197.453.184.017.56-.442.456-.553-.038-.04-.145 0-.26.1m-.026.555c-.206.189-.303.454-.17.462.197.008.56-.463.437-.568-.047-.038-.155.006-.267.106m.793-1.142c-.216.172-.334.424-.198.433.184.013.577-.425.468-.527-.043-.039-.153 0-.27.094m-.027.53c-.218.18-.317.436-.17.438.187.008.551-.41.462-.53-.041-.054-.167-.014-.292.092" fill="#7b7979" fill-rule="evenodd" style="fill:#7b7979;fill-opacity:1;stroke-width:.79724"/><g style="fill:#7b7979;fill-opacity:1"><g style="fill:#7b7979;fill-opacity:1"><path d="M0 0v1.991l3.894 3.846a53.718 53.718 0 0 1 2.259 2.332c.581.645 1.026 1.214 1.335 1.704.308.491.517.937.626 1.337.109.399.163.818.163 1.255 0 .927-.299 1.713-.898 2.358-.599.646-1.47.969-2.614.969a5.93 5.93 0 0 1-2.274-.431c-.699-.286-1.275-.615-1.728-.985L.164 16.5c.671.417 1.433.763 2.287 1.034a8.97 8.97 0 0 0 2.75.409c.962 0 1.805-.141 2.532-.422.725-.282 1.325-.658 1.797-1.13a4.678 4.678 0 0 0 1.062-1.62 5.283 5.283 0 0 0 .354-1.919c0-.581-.064-1.14-.191-1.675a6.3 6.3 0 0 0-.681-1.661c-.326-.572-.771-1.184-1.334-1.838a33.079 33.079 0 0 0-2.151-2.233L3.294 2.314v-.027c.581.018 1.349.031 2.301.041.953.009 2.056.014 3.308.014h2.696V0Z" style="fill:#7b7979;fill-opacity:1;fill-rule:nonzero;stroke:none" transform="matrix(.5331 0 0 -.5331 52.574 55.61)"/></g><g style="fill:#7b7979;fill-opacity:1"><path d="M0 0c0 1.308-.072 2.41-.217 3.309-.145.898-.362 1.624-.651 2.177-.289.554-.66.949-1.112 1.185-.452.235-.977.354-1.573.354-.507 0-.972-.119-1.397-.354-.425-.236-.796-.622-1.112-1.157-.316-.535-.565-1.235-.746-2.097-.181-.862-.271-1.929-.271-3.199 0-2.505.262-4.343.787-5.514.523-1.171 1.437-1.756 2.739-1.756 1.121 0 1.993.573 2.617 1.716C-.312-4.192 0-2.414 0 0m2.668.164c0-1.688-.182-3.127-.546-4.316-.364-1.189-.841-2.151-1.433-2.886-.591-.735-1.268-1.271-2.032-1.607a5.793 5.793 0 0 0-2.347-.503c-.982 0-1.846.159-2.592.476-.746.318-1.379.84-1.897 1.566-.518.725-.909 1.674-1.173 2.845-.264 1.171-.396 2.61-.396 4.316 0 1.56.16 2.908.477 4.043.319 1.134.76 2.069 1.324 2.804.564.736 1.238 1.285 2.02 1.648a6.029 6.029 0 0 0 2.565.545c.873 0 1.682-.146 2.428-.437.746-.29 1.383-.78 1.91-1.47.528-.69.941-1.606 1.242-2.75.3-1.143.45-2.569.45-4.274" style="fill:#7b7979;fill-opacity:1;fill-rule:nonzero;stroke:none" transform="matrix(.5331 0 0 -.5331 64.722 50.879)"/></g><g style="fill:#7b7979;fill-opacity:1"><path d="M0 0v1.991l3.894 3.846a53.718 53.718 0 0 1 2.259 2.332c.581.645 1.026 1.214 1.335 1.704.308.491.517.937.626 1.337.109.399.163.818.163 1.255 0 .927-.299 1.713-.898 2.358-.599.646-1.47.969-2.614.969a5.93 5.93 0 0 1-2.274-.431c-.699-.286-1.275-.615-1.728-.985L.164 16.5c.671.417 1.433.763 2.287 1.034a8.97 8.97 0 0 0 2.75.409c.962 0 1.805-.141 2.532-.422.725-.282 1.325-.658 1.797-1.13a4.678 4.678 0 0 0 1.062-1.62 5.283 5.283 0 0 0 .354-1.919c0-.581-.064-1.14-.191-1.675a6.3 6.3 0 0 0-.681-1.661c-.326-.572-.771-1.184-1.334-1.838a33.079 33.079 0 0 0-2.151-2.233L3.294 2.314v-.027c.581.018 1.349.031 2.301.041.953.009 2.056.014 3.308.014h2.696V0Z" style="fill:#7b7979;fill-opacity:1;fill-rule:nonzero;stroke:none" transform="matrix(.5331 0 0 -.5331 66.798 55.61)"/></g><g style="fill:#7b7979;fill-opacity:1"><path d="M0 0c0 1.308-.072 2.41-.217 3.309-.145.898-.362 1.624-.651 2.177-.289.554-.66.949-1.112 1.185-.452.235-.977.354-1.573.354-.507 0-.972-.119-1.397-.354-.425-.236-.796-.622-1.112-1.157-.316-.535-.565-1.235-.746-2.097-.181-.862-.271-1.929-.271-3.199 0-2.505.262-4.343.787-5.514.523-1.171 1.437-1.756 2.739-1.756 1.121 0 1.993.573 2.617 1.716C-.312-4.192 0-2.414 0 0m2.668.164c0-1.688-.182-3.127-.546-4.316-.364-1.189-.841-2.151-1.433-2.886-.591-.735-1.268-1.271-2.032-1.607a5.793 5.793 0 0 0-2.347-.503c-.982 0-1.846.159-2.592.476-.746.318-1.379.84-1.897 1.566-.518.725-.909 1.674-1.173 2.845-.264 1.171-.396 2.61-.396 4.316 0 1.56.16 2.908.477 4.043.319 1.134.76 2.069 1.324 2.804.564.736 1.238 1.285 2.02 1.648a6.029 6.029 0 0 0 2.565.545c.873 0 1.682-.146 2.428-.437.746-.29 1.383-.78 1.91-1.47.528-.69.941-1.606 1.242-2.75.3-1.143.45-2.569.45-4.274" style="fill:#7b7979;fill-opacity:1;fill-rule:nonzero;stroke:none" transform="matrix(.5331 0 0 -.5331 78.947 50.879)"/></g></g></svg>