<svg id="Grupo_117" data-name="Grupo 117" xmlns="http://www.w3.org/2000/svg" xmlns:xlink="http://www.w3.org/1999/xlink" width="170.999" height="219.384" viewBox="0 0 170.999 219.384">
  <defs>
    <clipPath id="clip-path">
      <rect id="Ret창ngulo_73" data-name="Ret창ngulo 73" width="170.999" height="219.384" fill="none"/>
    </clipPath>
  </defs>
  <g id="Grupo_116" data-name="Grupo 116" clip-path="url(#clip-path)">
    <path id="Caminho_88" data-name="Caminho 88" d="M88.606,162.24a1.984,1.984,0,0,1-.663-.114l-83.4-29.277A2,2,0,0,1,3.2,130.96V30.725a2,2,0,0,1,1.351-1.893L87.954.109a2.006,2.006,0,0,1,1.3,0l77.185,26.47a2,2,0,0,1,1.353,1.9V133.212a2,2,0,0,1-1.341,1.89L89.268,162.127a2.007,2.007,0,0,1-.662.113m-81.4-32.7,81.4,28.575,75.181-26.324V29.9L88.608,4.119,7.21,32.153Z" fill="#050505"/>
    <path id="Caminho_89" data-name="Caminho 89" d="M88.606,132.4a2.007,2.007,0,0,1-.658-.111l-56.634-19.7a2,2,0,0,1-1.345-1.892V50.434a2,2,0,0,1,1.343-1.89l77.523-27.03A2,2,0,0,1,111.5,23.4V82.238l54.955,19.24a2,2,0,0,1,0,3.779L89.268,132.282a2,2,0,0,1-.662.113M33.974,109.264,88.6,128.272l71.127-24.905-50.9-17.819a2,2,0,0,1-1.341-1.89V26.223L33.974,51.857Z" fill="#050505"/>
    <rect id="Ret창ngulo_72" data-name="Ret창ngulo 72" width="82.1" height="4.004" transform="translate(31.314 108.804) rotate(-19.231)" fill="#050505"/>
    <path id="Caminho_90" data-name="Caminho 90" d="M126.235,118.884a2,2,0,0,1-2-2V68.806l-8.689-2.719a2,2,0,0,1,1.195-3.821l10.094,3.157a2,2,0,0,1,1.4,1.911v49.548a2,2,0,0,1-2,2"/>
    <path id="Caminho_91" data-name="Caminho 91" d="M7.257,217.863a12.6,12.6,0,0,1-5.229-4.246A11.147,11.147,0,0,1,0,207.533H4.69a8.908,8.908,0,0,0,2.852,5.672q2.535,2.44,7.416,2.44a10.414,10.414,0,0,0,7.13-2.314,7.465,7.465,0,0,0,2.63-5.862,6.931,6.931,0,0,0-1.457-4.6,8.943,8.943,0,0,0-3.613-2.6,56.213,56.213,0,0,0-5.958-1.869,52,52,0,0,1-7.035-2.346,11.183,11.183,0,0,1-4.437-3.549A10.5,10.5,0,0,1,.38,185.983a10.869,10.869,0,0,1,1.775-6.116,11.879,11.879,0,0,1,5.007-4.215,17.226,17.226,0,0,1,7.415-1.521q6.147,0,9.919,3.011a11.312,11.312,0,0,1,4.342,7.763H24.021a7.968,7.968,0,0,0-2.979-4.848,10.327,10.327,0,0,0-6.845-2.124,10.34,10.34,0,0,0-6.655,2.124,7.021,7.021,0,0,0-2.662,5.8,6.692,6.692,0,0,0,1.458,4.5,9.283,9.283,0,0,0,3.644,2.6,53.644,53.644,0,0,0,5.927,1.9,53.864,53.864,0,0,1,6.971,2.377,11.375,11.375,0,0,1,4.5,3.581,10.4,10.4,0,0,1,1.838,6.465,11.411,11.411,0,0,1-1.647,5.894,12.027,12.027,0,0,1-4.881,4.5,16.321,16.321,0,0,1-7.732,1.711,18.35,18.35,0,0,1-7.7-1.521"/>
    <path id="Caminho_92" data-name="Caminho 92" d="M91.521,174.638l-12.549,44.3H74.029L62.874,181.166,51.465,218.941,46.647,219l-12.3-44.366h4.754L49.247,213.49,60.59,174.638h4.944L76.563,213.49l10.205-38.852Z"/>
    <path id="Caminho_93" data-name="Caminho 93" d="M133.161,187.568a15.157,15.157,0,0,0-5.8-6.877,16.572,16.572,0,0,0-9.158-2.5,17.344,17.344,0,0,0-8.873,2.281,16.309,16.309,0,0,0-6.212,6.5,22.227,22.227,0,0,0,0,19.616,16.251,16.251,0,0,0,6.212,6.528,18.392,18.392,0,0,0,17.208.285,15.432,15.432,0,0,0,5.957-5.7,18.728,18.728,0,0,0,2.567-8.651H116.429v-3.613h23.324v3.232a22.444,22.444,0,0,1-3.169,10.553,20.83,20.83,0,0,1-7.638,7.448,21.331,21.331,0,0,1-10.743,2.725,21.935,21.935,0,0,1-11.154-2.884,20.769,20.769,0,0,1-7.891-8.049,25.15,25.15,0,0,1,0-23.388,20.783,20.783,0,0,1,7.891-8.049,23.275,23.275,0,0,1,23.576.665,20.125,20.125,0,0,1,7.733,9.888Z"/>
    <path id="Caminho_94" data-name="Caminho 94" d="M152.3,178.251v16.542h16.8v3.676H152.3v16.8H171v3.676H147.865V174.575H171v3.676Z"/>
  </g>
</svg>
