<svg xmlns="http://www.w3.org/2000/svg" width="109.467" height="121.63" viewBox="0 0 109.467 121.63">
  <path id="notebook-outline" d="M88.141,14.163V50.652L75.978,38.489,63.815,50.652V14.163H39.489v97.3H100.3v-97.3H88.141M3,32.407V20.244H15.163V14.163A12.16,12.16,0,0,1,27.326,2H100.3a12.615,12.615,0,0,1,12.163,12.163v97.3A12.615,12.615,0,0,1,100.3,123.63H27.326a12.615,12.615,0,0,1-12.163-12.163v-6.081H3V93.222H15.163V68.9H3V56.733H15.163V32.407H3M15.163,20.244V32.407H27.326V20.244H15.163m0,85.141H27.326V93.222H15.163v12.163m0-36.489H27.326V56.733H15.163Z" transform="translate(-3 -2)"/>
</svg>
