<?xml version="1.0" encoding="UTF-8"?>
<svg xmlns="http://www.w3.org/2000/svg" xmlns:xlink="http://www.w3.org/1999/xlink" width="750px" height="188px" viewBox="0 0 750 188" version="1.1">
<g id="surface1">
<path style=" stroke:none;fill-rule:evenodd;fill:rgb(13.333333%,12.156863%,12.54902%);fill-opacity:1;" d="M 234.289062 102.5625 C 242.4375 95.730469 242.347656 83.335938 236.753906 79.773438 C 231.160156 76.214844 218.507812 79.054688 214.386719 89.242188 C 210.269531 99.425781 209.933594 105.636719 207.683594 111.179688 C 212.398438 110.832031 226.136719 109.390625 234.289062 102.5625 Z M 180.957031 141.796875 C 188.957031 117.492188 196.578125 92.832031 202.328125 67.394531 C 206.816406 67.394531 211.933594 67.503906 216.417969 67.503906 L 214.726562 77.105469 C 226.113281 69.71875 233.613281 67.800781 241.082031 68.414062 C 268.082031 70.621094 253.566406 106.097656 239.296875 114.625 C 230.921875 119.632812 219.578125 121.863281 203.910156 119.636719 C 202.0625 127.023438 200.21875 134.414062 198.371094 141.796875 C 192.566406 141.796875 186.761719 141.796875 180.957031 141.796875 "/>
<path style=" stroke:none;fill-rule:evenodd;fill:rgb(13.333333%,12.156863%,12.54902%);fill-opacity:1;" d="M 282.535156 85.65625 C 275.449219 92.480469 275.527344 104.882812 280.394531 108.441406 C 285.257812 112 296.265625 109.160156 299.847656 98.976562 C 303.433594 88.792969 303.722656 82.578125 305.683594 77.035156 C 301.582031 77.382812 289.625 78.828125 282.535156 85.65625 Z M 312.964844 120.964844 C 307.886719 120.964844 303.441406 121.070312 298.363281 121.070312 L 299.3125 110.0625 C 288.871094 119.933594 271.945312 126.453125 264.183594 117.15625 C 253.546875 102.625 263.621094 83.726562 275.609375 75.964844 C 288.910156 67.347656 306.574219 67.792969 324.179688 67.417969 C 317.875 84.933594 313.644531 102.890625 312.964844 120.964844 "/>
<path style=" stroke:none;fill-rule:evenodd;fill:rgb(13.333333%,12.156863%,12.54902%);fill-opacity:1;" d="M 345.515625 85.65625 C 338.425781 92.480469 338.503906 104.882812 343.371094 108.441406 C 348.238281 112 359.242188 109.160156 362.824219 98.976562 C 366.410156 88.792969 366.703125 82.578125 368.660156 77.035156 C 364.558594 77.382812 352.609375 78.828125 345.515625 85.65625 Z M 318.75 142.207031 L 321.304688 128.628906 C 332.652344 132.300781 342.503906 134.070312 349.90625 130.359375 C 355.660156 127.46875 359.941406 121.265625 362.289062 110.0625 C 351.851562 119.933594 334.925781 126.453125 327.164062 117.15625 C 316.527344 102.625 326.601562 83.726562 338.585938 75.964844 C 351.890625 67.347656 369.558594 67.792969 387.160156 67.417969 C 381.707031 82.570312 381.605469 106.339844 374.367188 123.257812 C 370.546875 132.1875 364.125 137.921875 356.441406 141.203125 C 345.207031 146 331.261719 145.558594 318.75 142.207031 "/>
<path style=" stroke:none;fill-rule:evenodd;fill:rgb(64.705882%,80.784314%,22.352941%);fill-opacity:1;" d="M 519.902344 85.65625 C 512.816406 92.480469 512.894531 104.882812 517.757812 108.441406 C 522.625 112 533.628906 109.160156 537.214844 98.976562 C 540.796875 88.792969 541.085938 82.578125 543.050781 77.035156 C 538.945312 77.382812 526.992188 78.828125 519.902344 85.65625 Z M 389.855469 107.617188 C 388.160156 111.28125 386.257812 115.15625 384.570312 118.820312 C 405.214844 123.3125 421.023438 120.601562 427.257812 113.957031 C 433.347656 106.445312 432.328125 97.941406 421.765625 91.765625 C 419.515625 90.199219 413.144531 87.042969 413.3125 83.3125 C 413.609375 74.816406 426.527344 76.839844 434.453125 79.296875 L 436.980469 67.667969 C 431.441406 66.382812 424.40625 66 418.753906 66.554688 C 411.878906 67.226562 404.472656 70.203125 398.734375 75.910156 C 394.273438 80.542969 393.355469 86.78125 394.988281 90.574219 C 396.949219 95.132812 403.308594 97.042969 406.550781 98.945312 C 411.976562 101.472656 415.207031 103.382812 414.285156 107.222656 C 413.515625 110.453125 409.582031 113.09375 402.546875 111.835938 C 398.179688 111.054688 393.074219 109.5 389.855469 107.617188 Z M 457.800781 89.867188 C 460.351562 84.21875 464.667969 78.511719 473.441406 77.394531 C 480.347656 76.722656 481.085938 84.003906 477.027344 86.804688 C 469.660156 89.980469 468.835938 85.625 457.800781 89.867188 Z M 486.4375 108.675781 C 486.015625 112.195312 484.742188 115.71875 484.324219 119.242188 C 467.910156 121.496094 450.300781 125.296875 441.210938 112.480469 C 431.800781 94.335938 445.371094 77.71875 457.269531 71.476562 C 478.160156 62.105469 492.671875 66.878906 495.734375 76.128906 C 501.929688 92.347656 482.777344 103.050781 455.15625 99.796875 C 452.277344 113.902344 466.6875 113.691406 486.4375 108.675781 Z M 573.085938 67.246094 C 578.15625 67.390625 583.230469 67.53125 588.300781 67.671875 C 585.621094 78.941406 581.253906 89.792969 578.582031 101.066406 C 574.617188 114.777344 590.96875 113.351562 598.023438 104.867188 C 604.304688 93.824219 607.117188 80.566406 611.128906 67.246094 C 616.199219 67.246094 621.269531 67.246094 626.34375 67.246094 C 620.601562 84.859375 615.597656 102.476562 613.238281 120.089844 C 608.734375 119.804688 603.375 119.523438 598.871094 119.242188 C 599.011719 116.421875 599.148438 113.605469 599.292969 110.789062 C 584.046875 124.792969 558.953125 128.488281 562.09375 104.867188 C 563.898438 92.328125 568.988281 79.789062 573.085938 67.246094 Z M 622.539062 119.242188 C 629.335938 101.976562 633.910156 79.941406 637.332031 67.671875 L 649.59375 67.671875 L 649.164062 78.660156 C 654.519531 71.265625 664.246094 67.179688 674.109375 67.671875 L 669.457031 81.621094 C 657.195312 80.011719 648.554688 89.824219 643.777344 106.039062 C 642.558594 110.167969 641.585938 114.71875 640.878906 119.59375 Z M 685.101562 74.226562 C 669.597656 84.613281 663.378906 102.121094 671.222656 113.324219 C 679.058594 124.527344 697.984375 125.191406 713.480469 114.804688 C 728.984375 104.417969 735.199219 86.90625 727.367188 75.703125 C 719.527344 64.5 700.605469 63.835938 685.101562 74.226562 Z M 689.558594 90.160156 C 684.554688 99.105469 685.183594 108.597656 690.964844 111.355469 C 696.746094 114.109375 705.488281 109.089844 710.5 100.136719 C 715.507812 91.191406 714.878906 81.703125 709.097656 78.941406 C 703.316406 76.1875 694.566406 81.207031 689.558594 90.160156 Z M 493.136719 142.207031 L 495.691406 128.628906 C 507.039062 132.300781 516.890625 134.070312 524.289062 130.359375 C 530.046875 127.46875 534.328125 121.265625 536.671875 110.0625 C 526.234375 119.933594 509.308594 126.453125 501.550781 117.15625 C 490.910156 102.625 500.988281 83.726562 512.972656 75.964844 C 526.277344 67.347656 543.941406 67.792969 561.546875 67.417969 C 556.09375 82.570312 555.992188 106.339844 548.753906 123.257812 C 544.929688 132.1875 538.515625 137.921875 530.832031 141.203125 C 519.59375 146 505.648438 145.558594 493.136719 142.207031 "/>
<path style=" stroke:none;fill-rule:evenodd;fill:rgb(13.333333%,12.156863%,12.54902%);fill-opacity:1;" d="M 39.191406 48.601562 C 33.90625 54.8125 29.921875 61.878906 27.003906 69.609375 C 23.945312 77.648438 22.308594 85.910156 22.308594 94.71875 C 22.308594 104.703125 24.441406 113.949219 28.101562 122.6875 C 31.746094 131.359375 36.734375 138.8125 43.296875 145.363281 C 49.679688 151.75 57.160156 156.855469 65.804688 160.570312 C 74.449219 164.34375 83.847656 166.421875 93.597656 166.421875 C 103.511719 166.421875 112.757812 164.433594 121.558594 160.570312 C 129.976562 156.894531 137.574219 151.871094 144.070312 145.363281 C 150.5 138.921875 155.460938 131.3125 159.027344 122.6875 C 162.769531 113.859375 164.890625 104.703125 164.890625 94.71875 C 164.890625 85.910156 163.238281 77.648438 160.1875 69.609375 C 157.207031 61.878906 153.253906 54.964844 148.003906 48.601562 C 142.753906 42.375 136.675781 37.21875 129.785156 33.234375 C 118.96875 26.992188 107.8125 23.253906 94.878906 23.253906 C 94.25 23.253906 93.636719 23.253906 93.023438 23.253906 C 80.257812 23.253906 68.5625 26.910156 57.566406 33.234375 C 50.605469 37.191406 44.464844 42.398438 39.191406 48.601562 "/>
<path style=" stroke:none;fill-rule:evenodd;fill:rgb(13.333333%,12.156863%,12.54902%);fill-opacity:1;" d="M 681.597656 145.359375 C 683.410156 145.359375 684.847656 145.941406 685.917969 147.230469 C 687.003906 148.453125 687.585938 150.035156 687.585938 152.125 C 687.585938 154.0625 687.003906 155.730469 685.917969 156.886719 C 684.847656 158.089844 683.410156 158.667969 681.597656 158.667969 C 679.820312 158.667969 678.441406 158.113281 677.371094 156.886719 C 676.214844 155.730469 675.707031 154.0625 675.707031 152.125 C 675.707031 150.035156 676.214844 148.453125 677.371094 147.230469 C 678.441406 145.941406 679.820312 145.359375 681.597656 145.359375 Z M 681.597656 133.566406 C 678.957031 133.566406 676.511719 133.988281 674.191406 134.925781 C 671.898438 135.867188 669.878906 137.148438 668.164062 138.886719 C 666.429688 140.621094 665.074219 142.558594 664.203125 144.785156 C 663.265625 147.03125 662.847656 149.480469 662.847656 152.125 C 662.847656 154.640625 663.265625 157.085938 664.203125 159.335938 C 665.074219 161.46875 666.429688 163.5 668.164062 165.234375 C 669.96875 166.878906 671.96875 168.238281 674.285156 169.171875 C 676.511719 170.039062 679.023438 170.546875 681.597656 170.546875 C 684.277344 170.546875 686.652344 170.039062 689.039062 169.171875 C 691.257812 168.238281 693.328125 166.878906 695.066406 165.234375 C 696.863281 163.5 698.15625 161.46875 699.09375 159.242188 C 700.027344 157.019531 700.46875 154.644531 700.46875 152.125 C 700.46875 149.480469 700.027344 147.03125 699.09375 144.785156 C 698.226562 142.558594 696.933594 140.621094 695.128906 138.886719 C 693.421875 137.148438 691.324219 135.867188 689.039062 134.925781 C 686.722656 133.988281 684.277344 133.566406 681.597656 133.566406 "/>
<path style=" stroke:none;fill-rule:evenodd;fill:rgb(13.333333%,12.156863%,12.54902%);fill-opacity:1;" d="M 657.019531 159.691406 C 657.308594 158.019531 657.433594 155.953125 657.433594 153.417969 L 657.433594 134.34375 L 644.777344 134.34375 L 644.777344 153.570312 C 644.777344 155.730469 644.554688 157.242188 643.980469 158.179688 C 643.402344 159.046875 642.554688 159.46875 641.238281 159.46875 C 639.949219 159.46875 639.085938 159.046875 638.527344 158.179688 C 638.011719 157.375 637.722656 155.800781 637.722656 153.570312 L 637.722656 134.34375 L 625.136719 134.34375 L 625.136719 153.417969 C 625.0625 156.085938 625.285156 158.113281 625.574219 159.691406 C 625.839844 161.339844 626.425781 162.628906 627.070312 163.71875 C 628.519531 165.9375 630.449219 167.59375 632.898438 168.75 C 635.28125 169.972656 638.082031 170.546875 641.238281 170.546875 C 644.421875 170.546875 647.160156 169.972656 649.585938 168.75 C 652.035156 167.59375 653.992188 165.9375 655.34375 163.71875 C 656.054688 162.628906 656.640625 161.269531 657.019531 159.691406 "/>
<path style=" stroke:none;fill-rule:evenodd;fill:rgb(13.333333%,12.156863%,12.54902%);fill-opacity:1;" d="M 718.453125 134.34375 L 705.785156 134.34375 L 705.785156 169.613281 L 730.75 169.613281 L 730.75 158.179688 L 718.453125 158.179688 L 718.453125 134.34375 "/>
<path style=" stroke:none;fill-rule:evenodd;fill:rgb(95.294118%,66.27451%,20.784314%);fill-opacity:1;" d="M 141.230469 49.191406 C 132.398438 38.460938 120.972656 31.546875 106.867188 28.882812 C 93.023438 26.273438 79.90625 28.363281 67.488281 35.097656 C 61.109375 38.683594 55.714844 43.15625 51.367188 48.433594 C 46.898438 53.828125 43.476562 60.035156 41.273438 66.996094 C 39.011719 74.132812 38.429688 81.621094 39.191406 88.925781 C 41.046875 84.230469 43.882812 79.925781 47.261719 75.8125 C 52.125 70.007812 58.160156 65.660156 64.890625 62.46875 C 71.609375 59.453125 78.980469 57.769531 86.636719 57.597656 C 94.34375 57.597656 101.835938 59.101562 108.78125 62.125 C 116.105469 65.085938 122.488281 69.609375 127.929688 75.644531 C 129.964844 77.671875 131.652344 80.105469 133.324219 82.542969 C 135.757812 82.542969 138.199219 82.710938 140.289062 83.300781 C 145.742188 84.808594 150.042969 87.589844 153.402344 91.769531 L 153.566406 89.09375 C 154.160156 81.785156 153.402344 74.882812 151.375 68.09375 C 149.28125 61.363281 145.90625 54.984375 141.230469 49.191406 "/>
<path style=" stroke:none;fill-rule:evenodd;fill:rgb(95.294118%,66.27451%,20.784314%);fill-opacity:1;" d="M 37.671875 116.710938 C 38.601562 122.339844 40.289062 127.726562 43.117188 132.660156 C 45.742188 137.539062 49.332031 142 53.800781 145.949219 L 56.0625 147.804688 C 63.78125 153.085938 72.007812 156.855469 81.011719 158.714844 C 86.816406 159.808594 92.667969 159.460938 98.296875 158.132812 C 104.265625 156.855469 109.90625 154.417969 115.179688 150.820312 C 110.304688 149.71875 105.957031 147.101562 102.582031 143.160156 L 101.253906 141.65625 C 94.175781 142.410156 87.046875 142.179688 79.90625 140.730469 C 70.847656 138.644531 63.023438 134.867188 55.714844 129.648438 C 48.75 124.367188 42.960938 117.632812 38.601562 109.753906 L 37.496094 107.480469 C 37.324219 110.5 37.324219 113.683594 37.671875 116.710938 "/>
<path style=" stroke:none;fill-rule:evenodd;fill:rgb(85.098039%,28.627451%,21.568627%);fill-opacity:1;" d="M 104.433594 69.433594 C 97.890625 66.589844 90.738281 65.316406 83.445312 65.316406 C 76.308594 65.484375 69.574219 66.996094 63.371094 70.007812 C 57.160156 72.800781 51.777344 76.917969 47.261719 82.199219 C 44.058594 86.144531 41.441406 90.4375 39.769531 94.957031 C 41.046875 100.585938 43.117188 105.800781 46.152344 111.085938 C 50.441406 118.390625 56.0625 124.59375 63.023438 129.472656 C 69.753906 134.34375 77.476562 137.539062 85.699219 139.382812 C 90.738281 140.320312 96.03125 140.730469 101.253906 140.488281 C 99.222656 137.132812 97.890625 133.59375 97.308594 129.472656 C 96.609375 125.304688 96.792969 121.179688 97.535156 116.710938 C 98.460938 111.257812 100.5 106.207031 103.328125 101.507812 C 106.363281 96.8125 110.304688 92.519531 114.933594 89.09375 C 117.957031 86.898438 121.148438 85.214844 124.34375 83.871094 L 122.652344 81.960938 C 117.378906 76.570312 111.398438 72.214844 104.433594 69.433594 "/>
<path style=" stroke:none;fill-rule:evenodd;fill:rgb(93.333333%,54.117647%,18.823529%);fill-opacity:1;" d="M 154.554688 101.507812 L 152.882812 98.667969 C 150.441406 107.132812 145.90625 114.628906 140.117188 121.414062 C 138.78125 127.035156 136.519531 132.082031 133.566406 136.785156 C 130.546875 141.421875 126.59375 145.601562 122.078125 149.140625 C 125.269531 149.308594 128.460938 148.796875 131.652344 147.628906 C 134.660156 146.527344 137.445312 144.847656 140.289062 142.574219 C 144.070312 139.042969 147.605469 134.867188 150.617188 130.578125 L 151.132812 129.824219 C 152.46875 127.035156 153.8125 124.199219 154.726562 121.578125 C 155.664062 118.738281 156.242188 115.957031 156.421875 113.355469 C 156.59375 110.5 156.59375 108.0625 156.070312 105.628906 C 155.664062 104.128906 155.082031 102.789062 154.554688 101.507812 "/>
<path style=" stroke:none;fill-rule:evenodd;fill:rgb(89.019608%,41.960784%,20.392157%);fill-opacity:1;" d="M 31.109375 68.492188 C 28.679688 75.242188 27.351562 82.363281 27.003906 90.089844 C 26.832031 99.996094 28.679688 109.574219 32.457031 118.574219 C 34.300781 122.855469 36.578125 127.035156 39.347656 130.984375 C 42.035156 134.695312 44.984375 138.296875 48.34375 141.421875 C 41.046875 133.355469 36.734375 124.019531 35.421875 113.523438 C 35.066406 109.929688 35.066406 106.5625 35.242188 103.023438 C 32.808594 96.222656 31.472656 89.503906 31.472656 82.542969 C 31.472656 75.992188 32.625 69.609375 34.660156 63.042969 C 36.398438 58.53125 38.601562 54.230469 41.046875 50.300781 C 36.734375 55.921875 33.566406 61.949219 31.109375 68.492188 "/>
<path style=" stroke:none;fill-rule:evenodd;fill:rgb(89.019608%,41.960784%,20.392157%);fill-opacity:1;" d="M 159.203125 72.449219 C 157.519531 66.996094 155.316406 61.714844 152.46875 56.84375 C 149.691406 52.144531 146.257812 47.847656 142.152344 43.914062 C 138.433594 39.960938 134.085938 36.59375 129.214844 33.757812 C 133.324219 36.59375 137.089844 39.960938 140.464844 43.734375 C 145.742188 49.710938 149.691406 56.089844 152.121094 63.226562 C 154.554688 70.53125 155.664062 78.082031 155.082031 85.910156 C 154.914062 88.347656 154.554688 90.605469 154.160156 93.042969 C 155.082031 94.550781 156.070312 96.402344 156.828125 98.316406 C 158.675781 103.773438 159.027344 109.574219 158.097656 115.378906 C 160.941406 107.324219 162.386719 98.835938 162.214844 90.089844 C 161.863281 84.054688 160.941406 78.082031 159.203125 72.449219 "/>
<path style=" stroke:none;fill-rule:evenodd;fill:rgb(89.019608%,41.960784%,20.392157%);fill-opacity:1;" d="M 137.089844 90.257812 C 138.953125 94.199219 140.117188 98.5 140.632812 102.789062 C 141.230469 107.132812 141.390625 111.257812 141.042969 115.378906 L 140.289062 119.5 C 145.90625 112.949219 149.691406 105.628906 151.894531 97.15625 C 150.617188 95.886719 149.28125 94.550781 147.761719 93.453125 C 144.75 91.359375 141.230469 90.257812 137.089844 90.257812 "/>
<path style=" stroke:none;fill-rule:evenodd;fill:rgb(85.098039%,28.627451%,21.568627%);fill-opacity:1;" d="M 125.851562 139.742188 C 128.113281 136.542969 129.964844 133.019531 131.300781 129.472656 C 123.753906 134.867188 115.527344 138.644531 106.53125 140.488281 C 107.8125 142.574219 109.542969 144.269531 111.398438 145.601562 C 113.265625 146.875 115.34375 147.804688 117.777344 148.5625 C 120.800781 145.949219 123.582031 142.925781 125.851562 139.742188 "/>
<path style=" stroke:none;fill-rule:evenodd;fill:rgb(85.098039%,28.627451%,21.568627%);fill-opacity:1;" d="M 88.132812 159.808594 L 96.210938 160.214844 C 103.171875 160.046875 109.710938 158.714844 116.105469 156.617188 C 122.078125 154.589844 127.929688 151.75 132.988281 148.207031 C 129.785156 149.71875 126.425781 150.820312 122.839844 150.988281 C 121.730469 151.21875 120.390625 151.21875 119.117188 151.21875 C 109.90625 157.203125 99.558594 160.046875 88.132812 159.808594 "/>
<path style=" stroke:none;fill-rule:evenodd;fill:rgb(98.431373%,90.196078%,21.960784%);fill-opacity:1;" d="M 132.804688 105.453125 C 131.652344 100.585938 129.964844 96.066406 127.53125 91.769531 C 123.234375 93.042969 119.464844 95.308594 115.921875 98.316406 C 112.15625 101.507812 108.96875 105.453125 106.53125 109.929688 C 104.433594 114.441406 103.171875 118.738281 102.761719 123.257812 C 102.242188 127.554688 102.761719 131.503906 103.917969 135.273438 C 104.433594 136.542969 104.847656 137.703125 105.609375 138.8125 C 110.304688 138.296875 114.589844 136.957031 118.890625 135.097656 C 123.402344 133.355469 127.53125 130.984375 131.472656 127.96875 L 131.820312 127.726562 C 132.582031 124.941406 133.160156 122.105469 133.566406 119.308594 C 133.902344 114.628906 133.730469 110.148438 132.804688 105.453125 "/>
</g>
</svg>
