<?xml version="1.0" encoding="UTF-8"?>
<svg width="200px" height="200px" viewBox="0 0 200 200" version="1.1" xmlns="http://www.w3.org/2000/svg" xmlns:xlink="http://www.w3.org/1999/xlink">
    <!-- Generator: Sketch 62 (91390) - https://sketch.com -->
    <title>Hexicon-IDBadge-Blue</title>
    <desc>Created with Sketch.</desc>
    <g id="Hexicon-IDBadge-Blue" stroke="none" stroke-width="1" fill="none" fill-rule="evenodd">
        <polygon id="Polygon" fill="#DFE5F7" points="100 0 186.60254 50 186.60254 150 100 200 13.3974596 150 13.3974596 50"></polygon>
        <g id="Icon/IDBadge-Blue" transform="translate(50.000000, 50.000000)" fill="#003594">
            <g id="id-card-alt" transform="translate(13.000000, 17.000000)">
                <path d="M68.75,8.33333333 L45.8333333,8.33333333 L45.8333333,16.6666667 L47.9166667,16.6666667 C49.0672599,16.6666667 50,17.5994068 50,18.75 C50,19.9005932 49.0672599,20.8333333 47.9166667,20.8333333 L27.0833333,20.8333333 C25.9327401,20.8333333 25,19.9005932 25,18.75 C25,17.5994068 25.9327401,16.6666667 27.0833333,16.6666667 L29.1666667,16.6666667 L29.1666667,8.33333333 L6.25,8.33333333 C2.79822031,8.33333333 0,11.1315536 0,14.5833333 L0,60.4166667 C0,63.8684464 2.79822031,66.6666667 6.25,66.6666667 L68.75,66.6666667 C72.2017797,66.6666667 75,63.8684464 75,60.4166667 L75,14.5833333 C75,11.1315536 72.2017797,8.33333333 68.75,8.33333333 Z M37.5,29.1666667 C42.1023729,29.1666667 45.8333333,32.8976271 45.8333333,37.5 C45.8333333,42.1023729 42.1023729,45.8333333 37.5,45.8333333 C32.8976271,45.8333333 29.1666667,42.1023729 29.1666667,37.5 C29.1666667,32.8976271 32.8976271,29.1666667 37.5,29.1666667 Z M49.6484375,58.3333333 L25.3515625,58.3333333 C23.9973958,58.3333333 22.9036458,57.03125 23.3203125,55.7552083 C24.4374571,52.3213875 27.6390261,49.9977528 31.25,49.9999984 L32.3177083,49.9999984 C35.6329753,51.3889254 39.3670247,51.3889254 42.6822917,49.9999984 L43.75,49.9999984 C47.3597783,50.0014361 50.5594117,52.3236659 51.6796875,55.7552083 C52.0963542,57.03125 51.0026042,58.3333333 49.6484375,58.3333333 L49.6484375,58.3333333 Z" id="Shape" fill-rule="nonzero" opacity="0.4"></path>
                <path d="M45.8333333,4.16666667 C45.8333333,1.86548021 43.9678531,0 41.6666667,0 L33.3333333,0 C31.0321469,0 29.1666667,1.86548021 29.1666667,4.16666667 L29.1666667,16.6666667 L45.8333333,16.6666667 L45.8333333,4.16666667 Z M37.5,45.8333333 C42.1023729,45.8333333 45.8333333,42.1023729 45.8333333,37.5 C45.8333333,32.8976271 42.1023729,29.1666667 37.5,29.1666667 C32.8976271,29.1666667 29.1666667,32.8976271 29.1666667,37.5 C29.1666667,42.1023729 32.8976271,45.8333333 37.5,45.8333333 Z M51.6796875,55.7552083 C50.5594117,52.3236659 47.3597783,50.0014361 43.75,49.9999984 L42.6822917,49.9999984 C39.3670247,51.3889254 35.6329753,51.3889254 32.3177083,49.9999984 L31.25,49.9999984 C27.6390261,49.9977528 24.4374571,52.3213875 23.3203125,55.7552083 C22.9036458,57.03125 23.9973958,58.3333333 25.3515625,58.3333333 L49.6484375,58.3333333 C51.0026042,58.3333333 52.0963542,57.03125 51.6796875,55.7552083 L51.6796875,55.7552083 Z" id="Shape" fill-rule="nonzero"></path>
            </g>
        </g>
    </g>
</svg>